<svg xmlns="http://www.w3.org/2000/svg"
shape-rendering="geometricPrecision"
width="4000" height="4000" viewBox="0 0 542 542">
  <metadata>null</metadata>

<path d="
M 24.058 339.644
C 24.09 339.133 24.069 338.662 24.021 338.149
C 24.688 337.163 27.349 337.424 28.481 337.058
C 31.364 335.145 30.19 329.478 30.206 326.502
C 30.241 320.027 30.224 313.553 30.239 307.078
C 30.246 304.469 30.933 300.688 29.971 298.23
C 29.08 295.955 26.487 295.539 24.323 295.581
C 24.211 294.771 24.244 294.002 24.292 293.187
C 26.715 292.374 30.431 293.056 33.004 293.035
C 40.572 292.976 50.242 291.608 56.791 296.174
C 61.973 299.787 63.228 307.198 59.506 312.323
C 57.662 314.862 54.632 316.558 51.655 317.403
C 54.596 321.337 57.323 325.462 60.131 329.499
C 61.655 331.689 63.124 334.189 65.135 335.976
C 66.471 337.164 68.285 337.018 69.64 338.058
C 69.757 338.853 69.817 339.564 69.734 340.368
C 68.658 340.733 67.111 340.355 65.978 340.34
C 63.241 340.303 60.422 340.476 57.699 340.249
C 56.516 339.311 55.843 337.599 54.954 336.388
C 52.477 333.016 50.24 329.431 47.991 325.905
C 46.692 323.869 45.384 321.157 43.463 319.654
C 41.871 319.383 40.328 319.586 38.731 319.659
C 38.385 323.545 38.631 327.595 38.667 331.498
C 38.684 333.327 38.467 335.338 39.868 336.746
C 41.153 338.038 43.702 336.915 44.826 338.018
C 44.84 338.776 44.757 339.543 44.79 340.291
C 42.325 339.906 39.498 340.189 36.998 340.2
C 32.742 340.219 28.493 340.172 24.238 340.244
C 23.978 339.971 24.08 340.152 24.058 339.644 Z
M 38.784 296.8
C 38.145 303.19 38.834 309.756 38.716 316.164
C 42.94 315.778 46.947 316.198 50.121 312.811
C 53.877 308.802 53.034 300.902 48.243 298.043
C 45.503 296.408 41.864 296.49 38.784 296.8 Z"
opacity="1" fill="rgb(30,29,60)" fill-rule="evenodd" />
<path d="
M 77.327 292.955
C 82.151 293.204 87.028 293.078 91.859 293.053
C 93.603 293.044 96.156 292.47 97.809 292.905
C 97.831 293.739 97.83 294.563 97.613 295.373
C 95.612 295.836 93.109 295.524 91.886 297.562
C 90.611 299.686 91.385 304.096 91.38 306.509
C 91.363 313.343 91.392 320.178 91.415 327.012
C 91.423 329.524 90.726 333.677 92.035 335.934
C 93.054 337.689 95.717 337.682 97.529 337.823
C 97.663 338.62 97.737 339.41 97.799 340.212
C 91.23 339.555 84.069 340.058 77.468 340.316
C 76.931 339.917 77.137 338.481 77.184 337.866
C 78.933 337.489 81.712 337.682 82.559 335.767
C 83.669 333.258 83.104 329.49 83.13 326.798
C 83.193 320.366 83.15 313.934 83.166 307.503
C 83.173 304.725 83.985 300.241 82.813 297.668
C 81.935 295.741 79.122 295.639 77.316 295.589
C 77.05 294.756 77.148 293.899 77.171 293.035
C 77.223 293.009 77.275 292.982 77.327 292.955 Z"
opacity="1" fill="rgb(29,29,59)" fill-rule="evenodd" />
<path d="
M 91.949 362.613
C 91.97 362.378 91.991 362.143 92.012 361.908
C 93.943 361.01 97.351 361.593 99.5 361.573
C 105.99 361.509 115.242 360.228 119.738 366.043
C 123.864 371.379 121.173 379.053 115.407 381.818
C 111.62 383.634 107.875 383.204 103.854 382.983
C 103.449 384.119 103.695 385.777 103.683 386.994
C 103.654 389.865 103.623 392.753 103.82 395.619
C 105.059 396.28 107.266 395.691 108.244 396.688
C 108.309 397.205 108.317 397.687 108.328 398.203
C 104.313 397.831 100.034 398.116 96.003 398.255
C 94.281 398.314 92.077 399.029 91.885 396.925
C 92.718 395.882 95.164 396.35 96.315 395.529
C 97.628 393.93 97.023 390 97.032 387.987
C 97.054 382.874 97.035 377.761 97.046 372.649
C 97.05 370.553 97.542 367.666 96.867 365.66
C 96.273 363.894 93.776 363.745 92.26 363.392
C 91.87 362.991 91.995 363.241 91.949 362.613 Z
M 103.777 364.302
C 103.569 367.861 103.732 371.433 103.734 374.997
C 103.735 376.613 103.358 378.565 103.816 380.116
C 106.124 380.828 108.893 381.033 111.039 379.715
C 115.398 377.037 116.238 369.568 112.479 366.107
C 109.949 363.778 106.942 364.147 103.777 364.302 Z"
opacity="1" fill="rgb(68,162,167)" fill-rule="evenodd" />
<path d="
M 105.036 417.633
C 106.172 417.656 107.276 417.666 108.406 417.776
C 109.51 423.141 111.061 428.379 112.421 433.688
C 112.806 435.191 113.293 436.663 113.641 438.173
C 113.798 438.855 113.856 439.978 114.328 440.499
C 115.257 439.206 115.232 436.489 115.774 434.912
C 117.699 429.317 118.732 423.113 121.124 417.717
C 121.841 417.251 122.991 417.381 123.759 417.74
C 125.444 423.331 126.92 429 128.55 434.611
C 128.933 435.928 129.449 437.232 129.741 438.572
C 129.869 439.156 129.769 439.86 130.338 440.162
C 131.095 438.238 131.123 435.907 131.715 433.891
C 133.319 428.44 135.243 422.92 136.349 417.342
C 137.524 417.353 138.703 417.294 139.871 417.477
C 139.699 417.984 139.46 418.441 139.365 418.97
C 136.165 427.359 134.909 436.508 131.577 444.814
C 130.84 445.291 129.698 445.055 128.849 445.121
C 127.776 442.832 127.33 440.133 126.688 437.69
C 125.915 434.745 124.892 431.863 124.048 428.938
C 123.528 427.138 123.426 424.738 122.575 423.118
C 122.455 423.347 122.336 423.577 122.216 423.806
C 120.823 429.156 118.834 434.412 117.115 439.67
C 116.698 440.947 116.423 444.396 115.265 445.063
C 114.422 445.194 113.595 445.112 112.754 445.18
C 112.113 444.44 112.034 443.136 111.844 442.201
C 111.489 440.455 110.947 438.721 110.479 437.002
C 108.73 430.585 106.261 424.164 105.036 417.633 Z"
opacity="1" fill="rgb(9,10,30)" fill-rule="evenodd" />
<path d="
M 105.537 293.054
C 110.337 292.832 115.196 293.075 120.006 293.033
C 121.188 293.023 124.317 292.421 125.16 293.135
C 125.237 293.88 125.337 294.655 125.146 295.391
C 123.742 295.693 122.166 295.749 120.99 296.651
C 120.122 299.44 122.676 303.207 123.665 305.711
C 125.809 311.142 128.079 316.526 130.361 321.901
C 131.315 324.148 131.833 326.696 133.054 328.811
C 136.009 321.139 139.337 313.57 142.164 305.842
C 143.014 303.52 145.499 299.772 144.544 297.217
C 143.147 295.846 141.349 295.815 139.484 295.873
C 139.239 295.121 139.664 293.862 139.805 293.113
C 144.857 293.249 149.908 293.258 154.961 293.14
C 155.045 293.959 155.145 294.442 154.829 295.221
C 153.456 296.047 151.674 296.14 150.527 297.366
C 149.393 298.578 148.786 300.333 148.153 301.84
C 146.97 304.652 145.8 307.468 144.632 310.286
C 141.787 317.155 139.125 324.101 136.26 330.96
C 134.922 334.163 134.155 338.25 132.193 341.12
C 131.29 341.384 130.138 341.283 129.203 341.205
C 124.541 330.735 120.677 319.896 116.039 309.409
C 114.803 306.615 113.56 303.828 112.296 301.047
C 111.642 299.609 110.956 297.718 109.779 296.62
C 108.677 295.59 106.982 296.205 105.756 295.566
C 105.57 294.733 105.58 293.908 105.537 293.054 Z"
opacity="1" fill="rgb(30,28,60)" fill-rule="evenodd" />
<path d="
M 130.914 396.339
C 132.169 396.185 133.587 396.137 134.786 395.716
C 136.519 394.036 135.772 390.219 135.782 387.998
C 135.806 382.846 135.841 377.695 135.829 372.543
C 135.824 370.215 136.278 367.445 135.601 365.198
C 134.539 363.653 132.51 364.465 131.383 363.381
C 131.007 363.019 131.131 362.003 131.117 361.594
C 134.521 361.358 138.083 361.673 141.504 361.702
C 143.274 361.717 145.417 361.28 147.125 361.72
C 147.226 362.305 147.289 362.872 147.349 363.462
C 147.246 363.711 146.477 363.66 146.231 363.691
C 145.074 363.838 143.964 364.016 142.843 364.344
C 142.18 365.528 142.338 367.168 142.303 368.495
C 142.218 371.695 142.355 374.898 142.283 378.096
C 145.894 378.312 149.535 378.103 153.151 378.106
C 155.35 378.107 157.833 378.425 159.993 377.993
C 160.438 377.066 160.11 375.509 160.101 374.499
C 160.075 371.578 160.734 367.624 159.665 364.863
C 158.767 363.771 155.961 364.409 155.362 363.388
C 155.161 363.044 155.292 362.159 155.288 361.805
C 156.635 361.44 158.117 361.713 159.501 361.72
C 161.997 361.733 164.505 361.753 167 361.713
C 167.919 361.699 170.303 361.21 170.922 361.831
C 170.957 362.469 171.044 363.054 171.159 363.68
C 169.823 363.365 168.006 363.931 167.049 364.851
C 166.272 367.412 166.591 370.569 166.597 373.226
C 166.608 378.074 166.672 382.921 166.646 387.769
C 166.633 390.047 165.964 393.885 167.229 395.883
C 168.548 396.183 170.145 396.021 171.384 396.514
C 171.471 396.956 171.612 397.784 171.353 398.166
C 167.12 398.23 162.881 398.232 158.647 398.252
C 157.306 398.258 154.046 398.918 155.282 396.497
C 156.569 396.179 158.383 396.464 159.47 395.621
C 160.139 394.113 159.887 392.153 159.919 390.535
C 159.981 387.4 159.932 384.192 160.233 381.072
C 159.624 380.517 157.061 380.867 156.217 380.859
C 153.145 380.827 150.074 380.958 147.002 380.946
C 145.506 380.94 143.708 380.663 142.339 381.358
C 142.281 384.738 142.236 388.118 142.253 391.499
C 142.259 392.759 141.98 394.7 142.8 395.731
C 144.084 396.04 145.712 395.929 146.903 396.456
C 146.926 396.999 147.072 397.727 146.906 398.239
C 143.013 397.875 138.92 398.108 135.012 398.166
C 134.26 398.177 131.612 398.629 131.044 398.148
C 130.801 397.942 130.915 396.496 130.914 396.339 Z"
opacity="1" fill="rgb(69,166,169)" fill-rule="evenodd" />
<path d="
M 144.974 434.612
C 145.329 432.001 145.941 429.861 147.834 427.899
C 151.482 424.119 157.794 424.692 160.817 428.893
C 162.321 430.981 162.642 433.836 162.655 436.334
C 157.937 436.315 153.078 435.967 148.38 436.381
C 146.839 438.547 150.788 442.055 152.652 442.668
C 155.797 443.701 157.421 442.055 159.805 440.422
C 160.568 440.369 161.922 440.991 161.978 441.876
C 159.056 446.094 152.469 446.499 148.652 443.41
C 146.103 441.347 144.735 437.853 144.974 434.612 Z
M 147.99 433.102
C 147.933 433.306 147.876 433.51 147.819 433.714
C 149.139 434.161 151.107 433.897 152.504 433.884
C 154.712 433.862 157.583 434.423 159.715 433.87
C 159.723 429.61 155.477 426.367 151.454 428.328
C 149.529 429.267 148.744 431.258 147.99 433.102 Z"
opacity="1" fill="rgb(10,10,28)" fill-rule="evenodd" />
<path d="
M 162.005 339.14
C 161.954 338.343 161.923 338.692 162.03 338.09
C 163.973 337.366 166.669 337.751 167.758 335.613
C 168.965 333.243 168.261 329.593 168.269 327.007
C 168.289 320.34 168.302 313.674 168.287 307.008
C 168.28 304.315 169.028 300.177 167.723 297.735
C 166.487 295.422 164.466 296.188 162.355 295.652
C 162.24 294.836 162.273 294.071 162.328 293.252
C 165.488 292.847 168.822 293.161 172.007 293.164
C 180.693 293.173 189.558 293.708 198.224 293.126
C 198.412 295.31 198.431 297.501 198.641 299.684
C 198.748 300.793 199.187 302.241 198.942 303.346
C 198.793 304.018 197.137 304.118 196.631 303.93
C 195.733 301.816 195.13 298.641 192.994 297.367
C 191.785 296.645 189.872 296.858 188.51 296.832
C 184.741 296.759 180.9 296.706 177.141 296.976
C 176.395 298.441 176.864 300.862 176.86 302.496
C 176.85 306.415 176.877 310.357 176.746 314.27
C 180.935 314.41 186.181 314.927 190.221 313.647
C 191.713 312.239 190.979 309.966 191.804 308.253
C 192.616 308.272 193.665 308.054 194.314 308.615
C 194.451 312.24 194.335 315.898 194.284 319.526
C 194.264 320.907 194.615 322.424 194.307 323.781
C 193.636 323.904 192.867 324.004 192.239 323.748
C 191.487 322.178 191.623 320.11 190.285 318.835
C 188.149 316.8 182.724 317.784 180.009 317.797
C 179.288 317.8 177.204 317.551 176.743 318.119
C 176.818 322.41 176.703 326.706 176.777 330.998
C 176.799 332.25 176.351 334.85 177.273 335.765
C 181.25 336.704 185.841 336.438 189.906 336.271
C 191.606 336.202 193.767 336.184 195.219 335.159
C 197.523 333.53 198.201 330.23 199.75 328.024
C 200.788 327.932 201.551 328.037 202.444 328.57
C 202.482 330.401 201.776 332.38 201.356 334.155
C 200.89 336.121 200.617 338.328 199.794 340.18
C 195.099 340.584 190.212 340.232 185.498 340.223
C 177.742 340.208 169.976 340.349 162.223 340.27
C 161.983 339.911 162.018 339.564 162.005 339.14 Z"
opacity="1" fill="rgb(28,29,61)" fill-rule="evenodd" />
<path d="
M 179.001 397.664
C 178.981 396.988 179.019 397.387 178.812 396.478
C 179.925 396.271 181.033 396.31 182.148 396.153
C 182.87 395.66 183.16 394.726 183.549 393.978
C 184.771 391.625 185.795 389.184 186.845 386.751
C 189.136 381.438 191.468 376.152 193.543 370.75
C 194.738 367.637 195.56 363.753 197.451 360.996
C 198.174 360.906 199.095 360.726 199.749 361.094
C 202.869 369.701 206.693 378.072 210.237 386.515
C 211.341 389.144 212.553 394.353 215.174 395.872
C 216.022 396.364 217.244 396.394 218.188 396.629
C 218.244 397.006 218.427 398.157 218.029 398.366
C 214.534 398.546 211.011 398.371 207.511 398.422
C 205.814 398.446 203.955 398.771 202.284 398.605
C 202.294 398.146 202.16 397.243 202.339 396.819
C 202.59 396.225 205.743 395.868 206.394 395.769
C 206.514 394.949 206.049 393.849 205.797 393.07
C 205.106 390.935 204.487 388.028 203.227 386.166
C 199.129 385.648 194.743 385.65 190.642 386.056
C 189.694 386.9 189.329 388.344 188.921 389.526
C 188.221 391.551 187.363 393.524 186.78 395.588
C 187.803 396.266 189.908 396.204 191.112 396.331
C 191.506 396.879 191.31 397.724 191.255 398.368
C 190.239 398.575 189.039 398.306 187.998 398.309
C 185.11 398.317 182.22 398.358 179.334 398.343
C 179.004 397.965 179.123 398.187 179.001 397.664 Z
M 191.905 382.058
C 191.704 382.687 191.819 382.332 191.556 383.123
C 194.955 383.5 198.377 382.964 201.776 383.139
C 201.457 380.501 199.581 377.251 198.649 374.733
C 198.207 373.538 197.785 372.301 197.245 371.148
C 197.09 370.814 197.107 370.304 196.774 370.149
C 196.56 370.049 196.594 370.585 196.504 370.803
C 195.094 374.603 193.309 378.262 191.905 382.058 Z"
opacity="1" fill="rgb(61,164,167)" fill-rule="evenodd" />
<path d="
M 182.413 427.577
C 183.88 420.243 191.603 415.176 198.837 417.925
C 200.556 418.578 201.939 419.577 203.331 420.755
C 203.784 421.138 204.725 421.775 204.834 422.379
C 204.234 423.311 203.054 423.896 202.073 424.339
C 201.076 423.762 200.618 422.11 199.563 421.378
C 196.128 418.996 191.172 419.774 188.298 422.661
C 184.632 426.935 184.047 433.623 187.149 438.384
C 190.948 444.217 198.757 443.572 202.649 438.386
C 203.495 438.415 204.93 439.203 205.294 439.984
C 201.882 446.354 191.903 446.715 186.825 442.474
C 182.73 439.055 181.3 432.612 182.413 427.577 Z"
opacity="1" fill="rgb(6,7,24)" fill-rule="evenodd" />
<path d="
M 186.002 168.123
C 186.88 158.059 199.411 160.224 206.507 160.228
C 222.673 160.238 238.841 160.119 255.007 160.17
C 260.007 160.186 265.008 160.125 270.008 160.152
C 272.321 160.164 274.883 159.834 277.147 160.306
C 277.366 161.123 275.438 162.25 274.872 162.682
C 272.314 164.638 270.139 167.6 267.279 169.098
C 264.779 169.782 261.581 169.196 259 169.181
C 253.5 169.149 247.999 169.186 242.499 169.151
C 230.499 169.075 218.498 169.159 206.498 169.194
C 199.696 169.214 192.832 168.984 186.04 169.313
C 185.864 168.93 185.971 168.535 186.002 168.123 Z"
opacity="1" fill="rgb(36,39,66)" fill-rule="evenodd" />
<path d="
M 186.512 175.14
C 186.49 174.318 186.374 174.749 187.205 173.995
C 190.543 173.427 194.121 173.744 197.499 173.731
C 204.665 173.705 211.831 173.831 218.997 173.837
C 239.998 173.852 260.999 173.75 282 173.796
C 289.768 173.813 297.536 173.753 305.304 173.789
C 309.034 173.807 313.604 174.54 317.015 172.706
C 321.469 170.311 324.718 164.418 327.524 160.348
C 328.362 159.878 330.01 160.233 330.999 160.239
C 333.833 160.256 336.667 160.26 339.5 160.262
C 344.122 160.265 350.151 159.24 353.841 162.698
C 357.812 166.419 356.406 172.815 355.624 177.559
C 353.519 190.322 348.079 203.49 339.861 213.549
C 323.316 233.8 296.715 246.487 270.429 246.109
C 245.961 245.757 221.839 234.359 205.449 216.373
C 198.06 208.263 192.896 198.57 189.446 188.203
C 188.097 184.15 186.612 179.443 186.512 175.14 Z
M 192.12 179.249
C 193.162 183.55 194.137 187.756 195.704 191.914
C 200.664 205.074 209.505 215.984 220.884 224.14
C 224.288 226.58 227.569 229.386 231.359 231.233
C 232.044 231.567 234.207 232.954 234.937 232.771
C 235.235 232.697 234.473 232.366 234.219 232.192
C 233.726 231.854 233.218 231.542 232.735 231.19
C 231.285 230.135 229.788 229.154 228.388 228.029
C 224.216 224.676 220.446 220.761 217.067 216.622
C 211.308 209.568 206.394 200.755 204.032 191.919
C 203.258 189.026 202.523 186.134 202.149 183.16
C 202.002 181.984 202.172 179.851 201.653 178.849
C 198.543 178.812 195.178 178.659 192.12 179.249 Z
M 246.302 186.37
C 245.599 189.246 248.674 188.072 250.291 189.085
C 250.743 191.026 250.557 193.257 250.578 195.243
C 250.615 198.846 250.619 202.45 250.64 206.054
C 250.656 208.852 251.226 212.406 250.495 215.114
C 249.508 215.55 247.31 215.799 246.24 215.79
C 246.271 216.145 246.205 217.217 246.377 217.582
C 246.585 218.023 249.436 217.619 249.93 217.556
C 253.525 217.094 257.195 217.818 260.766 217.311
C 260.828 216.775 260.751 216.469 260.498 215.992
C 259.27 214.92 257.542 215.428 256.202 214.681
C 255.989 211.212 255.775 207.678 256.049 204.211
C 257.409 203.286 259.484 204.535 260.418 205.592
C 262.974 208.483 264.885 211.905 267.314 214.9
C 268.46 216.313 270.787 218.248 271.174 220.048
C 270.992 220.768 269.69 221.773 269.183 222.364
C 267.492 224.336 265.619 228.011 263.301 229.2
C 262.356 229.342 261.413 229.497 260.466 229.628
C 260.359 229.95 260.175 230.717 260.448 231.027
C 260.861 231.496 262.466 231.275 263.013 231.269
C 265.617 231.236 268.226 231.137 270.829 231.172
C 271.151 229.308 268.304 229.282 267.122 229.038
C 267.748 226.647 270.727 223.466 272.437 221.698
C 273.108 221.985 273.552 222.886 274 223.477
C 275.228 225.094 277.166 227.102 277.869 229.004
C 276.96 229.119 273.86 229.562 274.391 230.993
C 278.612 230.824 283.193 231.506 287.376 230.824
C 287.454 229.475 284.583 229.208 283.664 228.245
C 280.694 225.129 277.584 221.023 275.237 217.425
C 275.605 216.441 276.7 215.708 277.371 214.919
C 278.908 213.113 280.072 210.521 282.059 209.167
C 283.116 208.446 284.494 208.521 285.618 207.951
C 285.77 207.521 285.704 207.264 285.567 206.834
C 283.214 206.747 280.866 206.917 278.512 206.866
C 277.922 206.853 276.307 206.545 275.833 206.857
C 274.177 207.947 278.572 208.943 279.116 208.984
C 278.191 211.359 276.083 213.581 274.395 215.458
C 271.768 212.847 269.796 209.513 267.543 206.588
C 266.757 205.567 264.929 204.347 264.619 203.122
C 266.882 202.299 269.525 200.937 270.939 198.912
C 273.501 195.244 271.334 189.769 267.645 187.869
C 264.613 186.308 261.09 186.327 257.762 186.336
C 253.943 186.347 250.11 186.325 246.302 186.37 Z
M 305.55 232.987
C 305.058 234.078 307.121 233.014 307.49 232.839
C 309.257 232 310.966 231.017 312.659 230.039
C 317.276 227.37 321.673 224.395 325.817 221.034
C 338.777 210.525 345.59 195.881 349.359 179.983
C 349.016 179.417 347.632 179.686 346.995 179.703
C 344.951 179.759 342.891 179.565 340.854 179.686
C 338.677 195.959 331.49 211.866 319.395 223.231
C 315.175 227.195 310.398 229.971 305.55 232.987 Z"
opacity="1" fill="rgb(162,204,209)" fill-rule="evenodd" />
<path d="
M 210.983 438.598
C 212.44 433.247 219.7 433.267 224.106 432.987
C 224.37 432.688 224.071 431.742 223.976 431.385
C 223.568 429.845 222.246 428.418 220.702 427.977
C 217.746 427.133 216.554 428.79 214.303 430.234
C 213.274 430.388 212.564 429.626 212.001 428.871
C 214.056 423.659 223.262 424.655 225.846 428.652
C 226.977 430.402 226.931 432.61 226.935 434.609
C 226.942 438.02 227.037 441.511 226.839 444.91
C 226.158 445.271 225.213 445.07 224.469 445.009
C 224.327 444.385 224.217 443.792 224.018 443.181
C 222.437 443.769 221.145 444.961 219.479 445.304
C 214.903 446.246 210.446 443.619 210.983 438.598 Z
M 213.886 439.068
C 213.475 442.97 218.245 443.847 221.06 442.333
C 223.785 440.868 223.954 438.293 223.907 435.487
C 223.214 435.291 222.193 435.638 221.467 435.699
C 218.828 435.92 215.01 436.222 213.886 439.068 Z"
opacity="1" fill="rgb(9,10,29)" fill-rule="evenodd" />
<path d="
M 211.179 293.135
C 215.703 292.676 220.397 293.086 224.947 293.057
C 230.535 293.022 236.614 292.417 241.787 294.962
C 248.202 298.119 250.608 306.186 246.378 312.154
C 244.505 314.796 241.69 316.139 238.821 317.432
C 239.3 319.26 241.705 321.432 242.78 323.061
C 245.62 327.363 248.545 332.639 252.353 336.15
C 253.698 337.391 255.576 337.422 256.922 338.518
C 256.931 339.141 256.899 339.74 256.792 340.354
C 254.908 340.638 252.903 340.353 251.005 340.317
C 248.949 340.279 246.771 340.482 244.742 340.136
C 243.286 338.878 242.291 336.968 241.185 335.406
C 238.611 331.771 236.277 328.009 233.833 324.291
C 231.752 321.127 229.961 318.291 225.681 319.55
C 225.586 323.363 225.615 327.184 225.654 330.999
C 225.669 332.497 225.351 334.761 226.315 336.026
C 227.715 337.861 230.377 336.797 231.806 338.072
C 231.914 338.837 231.857 339.551 231.82 340.316
C 226.573 340.102 221.265 340.236 216.009 340.268
C 214.748 340.276 213.487 340.315 212.227 340.353
C 212.041 340.359 211.286 340.448 211.166 340.219
C 210.929 339.762 211.108 338.606 211.118 338.12
C 211.893 337.157 214.631 337.484 215.812 337.139
C 218.184 334.886 217.252 330.465 217.251 327.504
C 217.249 321.003 217.224 314.503 217.213 308.002
C 217.208 304.998 217.83 301.089 216.97 298.198
C 216.442 296.425 214.693 295.901 213.071 295.62
C 212.703 295.557 211.646 295.555 211.372 295.263
C 211.04 294.909 211.181 293.408 211.179 293.135 Z
M 225.907 296.927
C 225.325 298.176 225.596 300.127 225.605 301.497
C 225.626 304.744 225.63 307.989 225.612 311.236
C 225.606 312.356 225.145 315.238 226.015 315.938
C 229.285 316.099 232.408 316.167 235.24 314.278
C 240.27 310.925 240.799 302.354 235.869 298.602
C 233.092 296.489 229.206 296.499 225.907 296.927 Z"
opacity="1" fill="rgb(27,27,60)" fill-rule="evenodd" />
<path d="
M 222.931 257.094
C 223.609 254.509 225.764 252.388 226.889 249.97
C 228.395 246.737 228.621 243.463 228.736 239.957
C 233.406 241.985 237.837 244.308 242.686 245.948
C 257.645 251.007 274.305 252.452 289.765 248.846
C 296.091 247.37 302.271 245.433 308.216 242.807
C 310.22 241.922 312.052 240.524 314.061 239.71
C 314.488 245.444 315.617 249.425 318.644 254.369
C 319.345 255.515 320.723 257.644 319.228 258.787
C 316.713 259.144 314.037 258.872 311.501 258.873
C 306.502 258.875 301.502 258.881 296.502 258.878
C 281.001 258.867 265.499 258.773 249.998 258.777
C 243.679 258.778 237.36 258.768 231.042 258.794
C 228.819 258.803 224.995 259.567 222.993 258.617
C 222.932 258.091 222.891 257.622 222.931 257.094 Z"
opacity="1" fill="rgb(32,61,106)" fill-rule="evenodd" />
<path d="
M 225.708 361.682
C 228.098 361.315 230.672 361.578 233.089 361.591
C 240.166 361.627 254.104 359.712 254.975 369.994
C 255.067 371.077 255.1 372.114 254.863 373.185
C 254.307 375.696 252.685 377.45 250.557 378.776
C 249.595 379.376 247.623 379.908 247.138 380.922
C 251.942 385.991 254.822 394.975 261.93 397.054
C 262.219 397.515 262.04 398.013 262.01 398.529
C 259.824 398.803 257.289 398.409 255.068 398.346
C 254.149 398.32 253.138 398.517 252.27 398.169
C 248.113 393.189 244.788 387.472 240.972 382.235
C 239.983 381.655 238.095 381.643 236.991 381.836
C 236.923 384.793 236.918 387.743 236.921 390.702
C 236.922 392.252 236.761 393.911 237.456 395.345
C 238.903 396.333 240.719 395.858 242.199 396.614
C 242.217 397.059 242.407 398.023 242.008 398.324
C 236.736 398.25 231.379 398.517 226.119 398.256
C 225.897 397.613 225.89 397.044 225.907 396.367
C 227.255 396.15 228.965 396.181 230.219 395.658
C 231.243 393.625 230.658 390.212 230.667 388.001
C 230.689 382.667 230.692 377.334 230.718 372
C 230.729 369.697 231.23 366.866 230.059 364.782
C 229.27 363.872 228.455 363.734 227.304 363.536
C 226.998 363.483 225.958 363.479 225.788 363.148
C 225.565 362.713 225.728 362.171 225.708 361.682 Z
M 237.36 364.398
C 236.773 365.724 237.074 367.625 237.095 369.058
C 237.144 372.419 237.126 375.78 237.227 379.139
C 240.383 379.378 243.565 379.225 246.065 377.043
C 249.845 373.743 248.273 366.812 244.035 364.803
C 242.033 363.853 239.485 364.17 237.36 364.398 Z"
opacity="1" fill="rgb(65,163,166)" fill-rule="evenodd" />
<path d="
M 236.223 425.802
C 237.105 425.662 238.248 425.42 239.072 425.834
C 239.355 426.73 238.875 427.688 238.953 428.613
C 241.575 427.04 242.628 425.007 246.113 425.268
C 246.258 426.327 246.019 427.37 245.861 428.419
C 243.787 428.614 241.917 428.665 240.362 430.298
C 239.172 431.548 239.204 433.07 239.131 434.679
C 238.976 438.067 238.701 441.582 238.971 444.966
C 238.129 444.999 237.288 444.935 236.447 444.927
C 235.688 443.516 236.179 440.834 236.191 439.248
C 236.225 434.798 235.906 430.235 236.223 425.802 Z"
opacity="1" fill="rgb(12,12,33)" fill-rule="evenodd" />
<path d="
M 246.302 186.37
C 250.11 186.325 253.943 186.347 257.762 186.336
C 261.09 186.327 264.613 186.308 267.645 187.869
C 271.334 189.769 273.501 195.244 270.939 198.912
C 269.525 200.937 266.882 202.299 264.619 203.122
C 264.929 204.347 266.757 205.567 267.543 206.588
C 269.796 209.513 271.768 212.847 274.395 215.458
C 276.083 213.581 278.191 211.359 279.116 208.984
C 278.572 208.943 274.177 207.947 275.833 206.857
C 276.307 206.545 277.922 206.853 278.512 206.866
C 280.866 206.917 283.214 206.747 285.567 206.834
C 285.704 207.264 285.77 207.521 285.618 207.951
C 284.494 208.521 283.116 208.446 282.059 209.167
C 280.072 210.521 278.908 213.113 277.371 214.919
C 276.7 215.708 275.605 216.441 275.237 217.425
C 277.584 221.023 280.694 225.129 283.664 228.245
C 284.583 229.208 287.454 229.475 287.376 230.824
C 283.193 231.506 278.612 230.824 274.391 230.993
C 273.86 229.562 276.96 229.119 277.869 229.004
C 277.166 227.102 275.228 225.094 274 223.477
C 273.552 222.886 273.108 221.985 272.437 221.698
C 270.727 223.466 267.748 226.647 267.122 229.038
C 268.304 229.282 271.151 229.308 270.829 231.172
C 268.226 231.137 265.617 231.236 263.013 231.269
C 262.466 231.275 260.861 231.496 260.448 231.027
C 260.175 230.717 260.359 229.95 260.466 229.628
C 261.413 229.497 262.356 229.342 263.301 229.2
C 265.619 228.011 267.492 224.336 269.183 222.364
C 269.69 221.773 270.992 220.768 271.174 220.048
C 270.787 218.248 268.46 216.313 267.314 214.9
C 264.885 211.905 262.974 208.483 260.418 205.592
C 259.484 204.535 257.409 203.286 256.049 204.211
C 255.775 207.678 255.989 211.212 256.202 214.681
C 257.542 215.428 259.27 214.92 260.498 215.992
C 260.751 216.469 260.828 216.775 260.766 217.311
C 257.195 217.818 253.525 217.094 249.93 217.556
C 249.436 217.619 246.585 218.023 246.377 217.582
C 246.205 217.217 246.271 216.145 246.24 215.79
C 247.31 215.799 249.508 215.55 250.495 215.114
C 251.226 212.406 250.656 208.852 250.64 206.054
C 250.619 202.45 250.615 198.846 250.578 195.243
C 250.557 193.257 250.743 191.026 250.291 189.085
C 248.674 188.072 245.599 189.246 246.302 186.37 Z
M 256.052 201.177
C 256.082 201.3 256.112 201.423 256.142 201.545
C 259.076 201.707 262.823 201.371 264.638 198.717
C 266.566 195.899 265.202 191.27 262.385 189.622
C 260.662 188.614 258.119 188.801 256.278 189.251
C 256.066 193.119 256.715 197.376 256.052 201.177 Z"
opacity="1" fill="rgb(21,23,59)" fill-rule="evenodd" />
<path d="
M 251.976 433.097
C 253.468 426.723 260.861 422.598 266.339 427.549
C 268.904 429.867 269.304 433.129 269.342 436.376
C 264.739 436.204 259.171 435.669 254.653 436.564
C 255.005 440.693 259.046 443.918 263.13 442.835
C 264.772 442.399 265.627 441.083 266.955 440.17
C 267.61 440.432 268.782 441.077 268.8 441.887
C 268.144 443.21 265.935 444.286 264.645 444.873
C 256.996 448.03 250.597 440.298 251.976 433.097 Z
M 254.93 432.575
C 254.817 433.101 254.72 433.43 254.89 433.95
C 258.708 433.918 262.523 434.008 266.339 433.883
C 266.304 426.558 256.924 425.959 254.93 432.575 Z"
opacity="0.996" fill="rgb(11,12,30)" fill-rule="evenodd" />
<path d="
M 256.052 201.177
C 256.715 197.376 256.066 193.119 256.278 189.251
C 258.119 188.801 260.662 188.614 262.385 189.622
C 265.202 191.27 266.566 195.899 264.638 198.717
C 262.823 201.371 259.076 201.707 256.142 201.545
C 256.112 201.423 256.082 201.3 256.052 201.177 Z"
opacity="1" fill="rgb(185,208,213)" fill-rule="evenodd" />
<path d="
M 264.423 313.088
C 265.316 309.081 266.509 305.371 269.049 302.063
C 277.708 290.787 294.774 289.095 306.624 296.216
C 306.833 299.709 306.992 303.615 306.788 307.102
C 305.949 307.134 305.066 307.332 304.237 307.169
C 303.42 304.474 302.175 301.606 300.171 299.571
C 292.129 291.402 279.692 296.164 275.536 305.709
C 270.2 317.963 276.458 339.739 292.968 337.179
C 295.039 336.858 297.013 336.086 298.831 335.051
C 302.179 333.145 303.098 330.448 305.209 327.531
C 306.057 327.535 306.882 327.607 307.725 327.695
C 307.602 329.748 307.49 332.877 306.665 334.747
C 304.369 337.322 299.975 338.895 296.739 339.828
C 283.338 343.691 267.342 337.067 264.561 322.472
C 263.983 319.436 263.922 316.138 264.423 313.088 Z"
opacity="1" fill="rgb(28,30,66)" fill-rule="evenodd" />
<path d="
M 269.537 362.642
C 269.564 362.011 269.568 362.397 269.452 361.487
C 271.906 360.758 275.527 361.648 278.147 361.567
C 278.755 361.548 280.334 361.196 280.798 361.52
C 282.845 367.004 285.654 372.186 287.806 377.622
C 289.241 381.247 290.579 385.45 292.745 388.705
C 294.025 387.354 294.697 384.428 295.532 382.704
C 298.068 377.471 300.181 372.037 302.525 366.719
C 303.231 365.118 303.668 363.035 304.663 361.613
C 307.146 361.506 309.639 361.587 312.126 361.555
C 313.235 361.541 314.708 361.179 315.78 361.462
C 315.912 362.209 316.004 362.965 316.109 363.716
C 314.789 363.495 313.153 363.85 311.959 364.397
C 310.766 366.436 311.304 369.725 311.297 372
C 311.278 377.305 311.304 382.611 311.31 387.916
C 311.313 390.224 310.848 393.313 311.873 395.44
C 313.466 396.514 316.733 395.667 316.357 398.267
C 311.124 397.925 305.775 398.31 300.529 398.317
C 299.856 397.985 300.051 397.083 300.17 396.427
C 301.186 396.154 303.845 396.314 304.537 395.587
C 305.16 393.736 304.838 391.334 304.848 389.405
C 304.87 385.6 304.874 381.802 304.835 377.997
C 304.814 375.987 304.771 373.959 304.828 371.951
C 304.839 371.534 305.09 368.766 304.854 368.888
C 300.622 375.92 297.775 384.188 294.479 391.7
C 293.7 393.473 292.86 395.253 291.928 396.95
C 291.567 397.607 291.049 398.8 290.144 398.581
C 286.727 391.481 283.9 383.926 280.886 376.638
C 280.163 374.889 279.464 373.096 278.658 371.39
C 278.49 371.035 278.125 369.606 277.764 369.488
C 277.424 369.377 277.396 371.296 277.387 371.486
C 277.281 373.819 277.27 376.154 277.259 378.489
C 277.243 381.991 277.204 385.494 277.166 388.996
C 277.143 391.115 276.95 393.47 277.542 395.525
C 279.065 395.825 280.63 396.038 282.18 396.201
C 282.203 396.863 282.086 397.471 281.988 398.12
C 280.429 398.551 278.301 398.176 276.683 398.172
C 274.501 398.167 271.644 398.799 269.533 398.303
C 269.043 398.188 269.196 397.224 269.175 396.889
C 270.263 395.983 272.412 396.081 273.786 395.755
C 274.5 392.772 274.248 389.54 274.297 386.499
C 274.363 382.406 274.596 378.332 274.667 374.244
C 274.717 371.36 275.221 367.512 274.186 364.778
C 272.748 364.141 270.993 363.838 269.659 363.035
C 269.618 362.904 269.578 362.773 269.537 362.642 Z"
opacity="1" fill="rgb(62,162,164)" fill-rule="evenodd" />
<path d="
M 274.891 168.689
C 277.164 167.342 279.079 164.776 281.041 162.972
C 285.578 158.803 290.201 154.723 294.766 150.586
C 301.96 144.065 309.171 137.5 316.533 131.174
C 320.924 127.401 325.451 123.656 329.484 119.492
C 331.986 116.908 331.454 113.152 331.713 109.822
C 332.14 104.329 334.993 99.118 340.722 97.826
C 345.722 96.698 350.371 99.306 354.087 102.411
C 359.866 107.238 364.89 114.402 359.563 121.648
C 357.656 124.242 354.798 125.695 351.735 126.471
C 348.921 127.185 346.065 127.029 343.908 129.292
C 340.704 132.653 338.282 136.815 335.682 140.639
C 331.575 146.678 327.332 152.637 322.965 158.49
C 321.179 160.883 319.418 163.285 317.667 165.703
C 316.934 166.714 315.998 168.282 314.796 168.785
C 313.581 169.294 312.01 169.1 310.726 169.098
C 308.166 169.092 305.607 169.096 303.047 169.07
C 293.735 168.976 284.013 168.179 274.756 169.028
C 274.801 168.915 274.846 168.802 274.891 168.689 Z"
opacity="1" fill="rgb(33,38,69)" fill-rule="evenodd" />
<path d="
M 290.671 417.71
C 296.504 418 302.614 418.096 308.439 417.643
C 308.529 418.66 308.588 419.711 308.702 420.723
C 306.902 420.46 304.836 420.726 303.008 420.725
C 299.911 420.723 296.793 420.603 293.7 420.733
C 293.544 423.75 293.406 427.032 293.818 430.03
C 298.036 429.464 302.443 429.898 306.691 429.732
C 307.06 430.542 306.911 431.789 306.785 432.658
C 302.581 433.105 298.085 432.842 293.852 432.858
C 293.474 436.783 293.558 440.968 293.838 444.901
C 292.872 444.816 291.908 444.904 290.947 444.745
C 290.261 441.907 290.78 438.429 290.777 435.509
C 290.773 429.59 290.55 423.619 290.671 417.71 Z"
opacity="1" fill="rgb(12,14,34)" fill-rule="evenodd" />
<path d="
M 313.981 434.611
C 314.084 433.093 314.501 431.506 315.204 430.155
C 317.932 424.912 324.976 423.667 329.392 427.702
C 331.886 429.981 332.96 433.209 332.676 436.536
C 332.035 444.046 322.822 448.667 316.991 443.083
C 314.837 441.019 313.782 437.541 313.981 434.611 Z
M 316.963 434.614
C 316.761 437.388 317.607 440.362 319.959 442.037
C 324.171 445.035 329.109 441.288 329.512 436.738
C 329.764 433.894 328.964 430.445 326.49 428.716
C 321.99 425.57 317.292 430.088 316.963 434.614 Z"
opacity="1" fill="rgb(8,10,30)" fill-rule="evenodd" />
<path d="
M 317.52 294.13
C 317.509 293.879 317.499 293.628 317.488 293.377
C 319.178 292.608 321.661 293.078 323.509 293.091
C 328.239 293.124 333.434 293.655 338.102 292.812
C 338.432 293.645 338.108 294.651 337.96 295.497
C 337.509 295.894 336.473 295.737 335.899 295.795
C 334.725 295.914 333.654 296.239 332.843 297.148
C 331.678 298.452 331.98 300.404 331.979 302.027
C 331.977 306.099 331.793 310.2 332.083 314.26
C 339.782 313.904 347.561 314.388 355.268 314.346
C 354.603 310.532 355.348 306.187 355.262 302.31
C 355.232 300.99 355.537 298.997 354.84 297.819
C 353.685 295.871 351.191 295.646 349.189 295.377
C 348.579 294.858 348.633 293.77 349.041 293.109
C 353.516 293.237 358.023 293.262 362.502 293.174
C 364.581 293.134 366.802 292.801 368.861 292.973
C 368.935 293.736 368.938 294.492 368.982 295.256
C 367.345 296.475 365.041 295.306 363.753 297.552
C 362.524 299.694 363.367 304.092 363.369 306.506
C 363.375 313.614 363.375 320.722 363.388 327.83
C 363.393 330.334 362.671 334.732 364.41 336.768
C 365.608 337.749 367.645 337.542 369.121 337.766
C 369.504 338.154 369.797 339.797 369.41 340.241
C 362.849 340.188 355.914 339.586 349.39 340.377
C 348.995 339.702 349.069 338.49 349.327 337.784
C 350.599 337.582 352.544 337.802 353.652 337.076
C 355.335 335.973 355.139 333.384 355.143 331.678
C 355.153 327.186 354.963 322.56 355.271 318.086
C 353.519 317.552 351.329 317.92 349.51 317.923
C 345.569 317.928 341.636 317.963 337.699 318.053
C 336.283 318.085 333.042 317.46 331.914 318.287
C 331.89 322.361 331.908 326.437 331.93 330.512
C 331.942 332.798 331.713 335.203 333.318 337.037
C 334.641 337.75 336.582 337.55 338.052 337.864
C 338.315 338.65 338.263 339.452 338.235 340.264
C 333.662 340.348 329.072 340.183 324.495 340.192
C 322.334 340.196 319.871 340.594 317.752 340.22
C 317.756 339.436 317.647 338.604 317.947 337.869
C 319.338 337.616 320.735 337.444 322.109 337.104
C 324.552 335.124 323.756 330.652 323.762 327.892
C 323.777 320.787 323.757 313.681 323.788 306.576
C 323.798 304.148 324.644 300.033 323.518 297.825
C 322.438 295.704 319.616 296.02 317.728 295.316
C 317.585 294.905 317.537 294.565 317.52 294.13 Z"
opacity="1" fill="rgb(38,70,132)" fill-rule="evenodd" />
<path d="
M 324.139 396.664
C 325.237 396.367 326.349 396.302 327.454 396.052
C 328.296 395.467 328.573 394.434 329.032 393.558
C 330.185 391.356 331.067 388.993 332.037 386.705
C 334.337 381.28 336.784 375.874 338.847 370.354
C 339.946 367.413 340.698 363.707 342.439 361.091
C 343.168 360.901 343.987 360.744 344.732 360.91
C 345.753 362.765 346.308 364.924 347.13 366.878
C 349.755 373.114 352.209 379.431 354.914 385.632
C 356.19 388.558 357.116 392.951 359.411 395.246
C 360.28 396.115 361.559 396.214 362.614 396.773
C 362.912 397.253 362.846 397.744 362.853 398.297
C 357.946 397.969 352.817 398.386 347.892 398.444
C 347.535 397.844 347.557 397.364 347.821 396.717
C 348.417 396.473 351.411 396.132 351.683 395.638
C 350.423 392.596 349.541 389.316 348.347 386.223
C 347.565 385.668 346.33 386.019 345.395 386.038
C 343.083 386.085 340.77 385.956 338.451 386.051
C 337.507 386.09 336.226 385.812 335.435 386.316
C 333.971 389.254 332.581 392.401 332.055 395.659
C 333.458 395.901 334.983 396.139 336.331 396.613
C 336.388 397.069 336.606 398.198 336.35 398.601
C 333.473 398.761 330.407 398.414 327.503 398.41
C 326.79 398.409 324.846 398.887 324.252 398.395
C 323.893 398.098 324.119 396.995 324.139 396.664 Z
M 336.887 382.581
C 336.815 382.79 336.743 382.999 336.671 383.208
C 339.794 383.234 343.911 383.878 346.933 383.088
C 345.339 378.804 343.729 374.453 341.923 370.258
C 339.818 374.12 338.786 378.598 336.887 382.581 Z"
opacity="1" fill="rgb(64,162,165)" fill-rule="evenodd" />
<path d="
M 340.786 425.917
C 341.773 425.797 342.693 425.731 343.689 425.778
C 343.969 426.613 343.498 427.959 343.39 428.823
C 343.375 428.958 345.248 427.139 345.566 426.832
C 346.921 425.522 348.873 425.394 350.655 425.287
C 350.81 426.279 350.631 427.303 350.718 428.295
C 347.919 427.92 344.547 429.634 343.9 432.622
C 343.02 436.687 344.106 441.064 343.799 445.155
C 342.864 445.117 341.752 445.377 340.85 445.107
C 340.808 440.742 340.839 436.374 340.821 432.006
C 340.813 430.058 340.433 427.822 340.786 425.917 Z"
opacity="1" fill="rgb(20,20,40)" fill-rule="evenodd" />
<path d="
M 367.991 417.752
C 369.015 417.686 370.737 417.193 371.608 417.808
C 372.257 419.5 373.512 421.084 374.451 422.635
C 376.237 425.585 377.775 428.698 379.542 431.64
C 382.513 427.041 384.713 421.725 388.132 417.415
C 389.384 417.377 390.594 417.504 391.837 417.461
C 391.212 418.942 389.881 420.273 388.948 421.587
C 387.31 423.892 385.901 426.4 384.354 428.77
C 383.306 430.375 381.972 432.006 381.308 433.818
C 380.406 436.276 380.951 439.659 380.974 442.246
C 380.978 442.635 381.297 444.745 381.011 444.926
C 380.173 444.874 379.324 444.87 378.484 444.889
C 377.86 444.263 378.069 442.861 378.091 441.994
C 378.152 439.629 378.576 436.602 377.989 434.298
C 377.504 432.395 375.887 430.663 374.895 428.987
C 372.66 425.214 370.06 421.615 367.991 417.752 Z"
opacity="1" fill="rgb(10,12,31)" fill-rule="evenodd" />
<path d="
M 370.945 377.597
C 373.225 365.03 385.374 358.286 397.513 361.466
C 399.619 362.017 402.692 362.572 404.346 364.043
C 404.198 366.695 403.98 369.946 404.425 372.556
C 404.187 372.842 402.89 372.503 402.509 372.484
C 401.303 370.11 400.966 367.84 398.862 365.949
C 393.602 361.223 384.924 363.432 381.164 368.884
C 375.304 377.382 378.011 393.031 389.037 395.803
C 393.034 396.808 397.257 395.67 400.268 392.815
C 401.936 391.235 402.331 387.841 405.025 388.299
C 404.868 390.155 404.741 393.067 403.577 394.605
C 402.678 395.792 401.013 396.445 399.704 397.052
C 395.362 399.067 389.929 399.621 385.287 398.348
C 375.747 395.733 369.792 387.568 370.945 377.597 Z"
opacity="1" fill="rgb(66,163,167)" fill-rule="evenodd" />
<path d="
M 377.31 337.799
C 378.625 337.489 379.913 337.334 381.245 337.103
C 382.454 336.265 383.11 334.772 383.743 333.49
C 385.07 330.802 386.152 328.027 387.308 325.264
C 390.294 318.126 393.307 311.004 396.153 303.807
C 397.106 301.398 398.074 298.993 399.028 296.584
C 399.543 295.285 399.845 293.641 400.68 292.522
C 401.683 292.172 402.651 292.245 403.691 292.173
C 405.082 294.934 405.928 298.022 407.131 300.875
C 410.619 309.152 413.901 317.535 417.516 325.754
C 418.941 328.994 420.148 334.831 423.273 336.88
C 424.32 337.567 425.784 337.653 426.975 337.955
C 427.129 338.575 427.105 339.688 426.888 340.297
C 420.623 340.14 413.701 339.576 407.491 340.464
C 407.254 339.563 407.235 338.706 407.237 337.78
C 408.731 337.243 410.649 337.311 411.948 336.363
C 412.286 335.02 411.461 333.621 410.999 332.394
C 410.052 329.881 409.466 326.791 408.084 324.496
C 402.784 324.119 397.005 324.147 391.714 324.637
C 391.073 325.488 390.797 326.633 390.369 327.606
C 389.237 330.177 386.888 334.14 387.877 337.008
C 389.336 337.197 390.814 337.397 392.287 337.577
C 392.522 338.452 392.388 339.43 392.325 340.327
C 387.507 340.101 382.222 339.827 377.434 340.45
C 377.141 339.641 377.232 338.644 377.31 337.799 Z
M 393.459 320.071
C 393.204 320.709 393.3 320.391 393.162 321.022
C 397.692 320.905 402.326 320.333 406.864 320.784
C 406.595 319.288 405.512 317.701 404.896 316.299
C 403.731 313.647 402.838 310.862 401.795 308.159
C 401.326 306.944 401.064 304.362 400.033 303.624
C 397.492 308.884 395.759 314.666 393.459 320.071 Z"
opacity="1" fill="rgb(33,61,121)" fill-rule="evenodd" />
<path d="
M 394.444 432.588
C 395.96 425.779 403.765 423.042 409.277 427.363
C 412.356 429.777 413.556 433.968 412.735 437.737
C 411.363 444.041 404.049 447.838 398.356 443.972
C 394.704 441.491 393.525 436.718 394.444 432.588 Z
M 397.445 432.575
C 396.543 435.578 397.225 439.371 399.615 441.469
C 403.226 444.64 408.376 442.228 409.527 437.948
C 410.271 435.181 409.739 431.604 407.631 429.541
C 404.089 426.074 398.799 428.06 397.445 432.575 Z"
opacity="1" fill="rgb(7,9,30)" fill-rule="evenodd" />
<path d="
M 412.405 361.308
C 415.92 361.481 419.481 361.465 423.004 361.449
C 424.593 361.441 426.675 361.003 428.184 361.543
C 428.317 362.138 428.468 362.753 428.331 363.361
C 427.23 363.537 425.581 363.972 424.752 364.716
C 426.741 369.703 429.904 374.963 433.064 379.33
C 433.843 379.024 434.83 376.348 435.31 375.528
C 437.428 371.907 439.664 368.369 441.098 364.413
C 440.41 364.246 437.486 364.041 437.131 363.468
C 436.992 363.245 437.048 361.571 437.048 361.569
C 440.975 361.261 445.254 361.387 449.203 361.567
C 449.209 362.074 449.412 363.076 449.013 363.451
C 447.979 363.612 446.486 363.727 445.642 364.4
C 443.692 365.955 442.292 369.278 441.013 371.392
C 439.584 373.754 438.31 376.227 436.803 378.539
C 436.051 379.692 434.843 380.994 434.602 382.384
C 434.208 384.655 434.582 387.317 434.594 389.624
C 434.604 391.456 434.291 393.701 435.06 395.405
C 436.188 396.345 437.846 396.25 439.207 396.643
C 439.322 397.227 439.276 397.761 439.313 398.348
C 435.085 398.054 430.744 398.308 426.508 398.365
C 424.61 398.391 422.629 399.134 422.633 396.797
C 423.409 395.725 426.052 396.249 427.197 395.255
C 428.031 392.683 427.584 389.049 427.501 386.358
C 427.466 385.205 427.756 383.858 427.324 382.758
C 426.194 379.887 424.047 377.247 422.547 374.552
C 420.862 371.525 419.11 367.44 416.62 365.001
C 415.625 364.027 414.157 363.932 412.972 363.306
C 412.588 362.654 412.533 362.045 412.405 361.308 Z"
opacity="1" fill="rgb(60,162,169)" fill-rule="evenodd" />
<path d="
M 420.637 425.651
C 421.647 425.625 422.621 425.587 423.618 425.752
C 423.209 429.033 423.57 432.67 423.573 435.992
C 423.574 437.555 423.342 439.444 424.044 440.895
C 425.845 444.622 431.721 443.018 433.281 439.945
C 434.047 438.437 433.831 436.414 433.834 434.775
C 433.839 431.783 433.922 428.79 433.907 425.798
C 434.804 425.508 435.81 425.66 436.742 425.604
C 436.272 432.114 436.67 438.798 436.772 445.318
C 435.942 445.279 435.129 445.317 434.304 445.178
C 434.221 444.337 434.083 443.466 434.085 442.622
C 433.03 443.507 431.835 444.339 430.599 444.962
C 426.986 446.782 422.261 445.071 421.014 441.199
C 420.366 439.187 420.603 436.851 420.634 434.767
C 420.678 431.727 420.594 428.688 420.637 425.651 Z"
opacity="1" fill="rgb(13,10,28)" fill-rule="evenodd" />
<path d="
M 436.192 325.76
C 437.229 325.667 438.251 325.633 439.289 325.577
C 440.448 330.448 442.105 334.954 447.128 337.006
C 452.274 339.109 459.825 336.768 459.622 330.249
C 459.439 324.387 453.687 321.728 449.201 319.393
C 443.207 316.274 437.751 311.797 438.123 304.425
C 438.652 293.937 449.781 290.59 458.53 292.853
C 460.231 293.293 463.89 293.851 465.006 295.317
C 465.22 298.66 465.896 302.88 465.278 306.169
C 464.381 306.231 463.572 306.31 462.68 306.13
C 461.723 304.913 461.808 303.154 461.316 301.729
C 460.291 298.763 458.228 296.779 455.281 295.757
C 449.257 293.669 442.767 299.809 446.102 305.836
C 448.037 309.331 452.068 310.792 455.437 312.52
C 460.855 315.297 466.631 319.124 467.327 325.716
C 468.674 338.469 454.125 343.132 444.01 340.35
C 441.741 339.726 438.056 338.734 436.453 336.936
C 435.621 333.524 436.405 329.286 436.192 325.76 Z"
opacity="1" fill="rgb(34,65,125)" fill-rule="evenodd" />
<path d="
M 477.624 293.074
C 489.644 293.087 501.755 293.487 513.771 293.058
C 513.821 295.409 513.993 297.766 514.218 300.108
C 514.322 301.199 514.674 302.67 514.358 303.731
C 513.485 303.824 512.612 304.016 511.762 303.736
C 510.654 301.804 510.794 299.082 508.882 297.63
C 507.779 296.792 505.8 296.822 504.476 296.79
C 501.984 296.729 499.493 296.771 497.001 296.766
C 495.514 296.763 493.892 296.563 492.489 297.121
C 492.342 302.832 492.457 308.554 492.315 314.264
C 492.877 314.723 494.89 314.39 495.629 314.399
C 498.862 314.438 502.343 314.72 505.518 314.005
C 507.541 312.945 506.23 309.739 507.401 308.227
C 508.211 308.261 509.17 308.092 509.922 308.454
C 509.566 311.906 509.745 315.591 509.839 319.061
C 509.876 320.397 510.492 322.65 509.892 323.845
C 509.294 323.901 508.709 323.887 508.115 323.961
C 506.701 323.316 507.235 320.398 506.17 319.2
C 504.123 316.896 498.384 317.952 495.64 317.917
C 494.832 317.907 492.91 317.549 492.267 318.087
C 492.116 322.128 492.174 326.193 492.209 330.237
C 492.223 331.905 491.901 334.337 492.815 335.795
C 494.194 336.431 495.78 336.276 497.265 336.326
C 501.205 336.46 507.769 337.503 511.133 335.042
C 513.447 333.348 514.179 330.25 515.313 327.768
C 516.306 327.616 517.274 327.86 518.208 328.215
C 518.509 329.151 517.892 330.462 517.692 331.402
C 517.268 333.404 516.861 335.401 516.495 337.414
C 516.352 338.2 516.309 339.517 515.851 340.188
C 506.105 340.547 496.252 340.242 486.497 340.197
C 484.365 340.187 482.235 340.192 480.103 340.214
C 479.834 340.217 477.929 340.483 477.801 340.191
C 477.582 339.693 477.725 338.671 477.728 338.149
C 478.923 336.566 482.01 338.073 483.18 335.765
C 484.583 332.998 483.761 328.516 483.768 325.504
C 483.781 319.504 483.782 313.504 483.787 307.504
C 483.79 304.699 484.321 301.327 483.651 298.592
C 483.222 296.838 481.663 296.065 480.033 295.744
C 479.5 295.639 478.204 295.64 477.791 295.247
C 477.379 294.856 477.615 293.45 477.624 293.074 Z"
opacity="1" fill="rgb(34,65,123)" fill-rule="evenodd" />

</svg>