<svg xmlns="http://www.w3.org/2000/svg"
shape-rendering="geometricPrecision"
width="934" height="763" viewBox="45 116 934 763">
  <metadata>null</metadata>

<path d="
M 45.361 598.099
C 45.514 597.414 45.463 597.815 45.427 596.889
C 50.795 596.369 56.578 597.3 62.002 597.281
C 65.503 597.269 69.004 597.296 72.505 597.301
C 86.476 597.318 102.02 595.718 111.682 607.919
C 113.502 610.216 114.605 612.845 115.134 615.72
C 116.898 625.3 111.706 634.366 103.072 638.579
C 100.951 639.613 98.557 640.132 96.272 640.677
C 95.767 640.797 94.086 640.873 93.794 641.312
C 93.424 641.868 95.386 643.823 95.696 644.265
C 97.699 647.123 99.705 649.977 101.746 652.808
C 106.012 658.723 110.015 664.794 114.46 670.582
C 116.858 673.705 119.55 677.329 122.997 679.364
C 125.837 681.04 129.19 680.34 132.185 681.308
C 132.326 681.712 133.539 684.109 133.465 684.181
C 130.757 684.539 127.929 683.831 125.204 683.809
C 120.044 683.768 114.74 684.248 109.6 683.876
C 108.382 683.071 107.458 681.254 106.648 680.047
C 104.991 677.577 103.279 675.141 101.563 672.712
C 96.888 666.091 92.044 659.582 87.396 652.946
C 85.414 650.116 83.759 646.89 81.531 644.258
C 78.089 643.814 74.606 643.787 71.159 644.217
C 71.388 652.931 71.17 661.665 71.171 670.381
C 71.172 673.955 71.468 678.822 75.171 680.721
C 77.998 681.173 81.369 680.47 84.066 681.23
C 84.215 682.103 84.274 682.981 84.427 683.852
C 83.039 684.152 81.477 683.85 80.067 683.773
C 77.319 683.621 74.554 683.498 71.803 683.443
C 62.991 683.267 54.037 683.562 45.24 684.132
C 45.27 683.171 45.379 682.217 45.403 681.256
C 49.269 680.757 53.897 682.158 56.16 678.247
C 59.22 672.956 58.071 665.872 58.068 659.993
C 58.062 647.331 58.048 634.669 58.09 622.008
C 58.104 617.941 58.208 613.862 58.085 609.796
C 58.029 607.934 58.113 605.701 57.181 604.022
C 56.07 602.017 53.825 599.788 51.473 599.507
C 49.352 599.254 47.164 599.885 45.107 599.594
C 45.204 599.095 45.264 598.597 45.361 598.099 Z
M 71.234 602.764
C 71.111 614.774 71.343 626.793 71.218 638.804
C 78.955 639.142 88.268 639.084 94.589 633.861
C 102.585 627.256 101.868 612.384 93.663 606.396
C 87.352 601.79 78.644 601.584 71.234 602.764 Z"
opacity="1" fill="rgb(116,165,59)" fill-rule="evenodd" />
<path d="
M 147.521 599.141
C 147.657 598.389 147.625 597.632 147.728 596.878
C 151.324 596.662 154.911 597.099 158.506 597.219
C 167.908 597.534 177.679 597.847 187.063 597.159
C 187.221 597.89 187.623 598.963 187.418 599.696
C 182.202 599.732 177.034 599.448 174.538 605.103
C 173.668 607.074 173.781 609.629 173.742 611.737
C 173.671 615.499 173.704 619.263 173.672 623.026
C 173.566 635.514 173.766 648.009 173.792 660.498
C 173.803 666.175 172.646 673.377 175.299 678.597
C 177 681.942 182.893 681.508 186.071 681.298
C 186.071 682.134 186.466 682.994 186.479 683.871
C 178.324 683.924 170.167 683.582 162.003 683.685
C 157.199 683.746 152.431 684.35 147.628 684.19
C 147.286 683.378 147.448 682.264 147.455 681.396
C 150.965 681.32 156.961 681.828 159.003 678.285
C 161.85 673.344 160.655 666.427 160.692 660.929
C 160.775 648.286 160.687 635.644 160.742 623.002
C 160.76 619.038 160.824 615.071 160.762 611.107
C 160.73 609.014 160.845 606.557 159.932 604.617
C 157.495 599.44 152.499 599.358 147.503 599.611
C 147.509 599.455 147.515 599.298 147.521 599.141 Z"
opacity="1" fill="rgb(117,164,60)" fill-rule="evenodd" />
<path d="
M 182.765 730.44
C 183.676 729.352 185.802 729.753 187.125 729.79
C 191.083 729.903 195.044 729.893 199.004 729.904
C 208.685 729.93 220.876 728.218 229.204 734.424
C 237.257 740.425 239.529 752.076 232.923 760.1
C 230.288 763.301 226.486 765.286 222.564 766.442
C 219.105 767.461 215.137 767.724 211.563 767.267
C 208.843 766.919 206.145 766.023 203.375 766.229
C 203.008 772.955 203.163 779.768 203.241 786.502
C 203.276 789.482 203.062 792.711 205.946 794.524
C 207.645 794.998 209.472 795.003 211.218 795.256
C 211.776 795.337 212.974 795.293 213.312 795.719
C 211.955 798.077 208.357 796.757 206.006 796.694
C 201.347 796.57 196.664 796.602 192.007 796.781
C 189.073 796.893 185.867 797.523 182.969 796.987
C 182.781 796.628 182.397 795.737 182.832 795.349
C 183.326 794.909 184.962 794.97 185.613 794.888
C 188.757 794.491 192.701 794.664 193.323 790.605
C 194.04 785.924 193.358 780.958 193.377 776.238
C 193.416 766.192 193.257 756.145 193.282 746.098
C 193.288 743.845 193.304 741.591 193.306 739.338
C 193.307 738.396 193.487 737.148 193.125 736.254
C 192.737 735.294 191.758 734.416 191.055 733.682
C 190.326 732.92 189.662 732.114 188.631 731.782
C 187.034 731.772 183.178 732.452 182.765 730.44 Z
M 203.263 734.824
C 202.998 744.113 203.247 753.42 203.203 762.706
C 207.254 763.774 213.25 764.445 217.189 762.6
C 225.236 758.829 226.505 745.556 221.148 739.16
C 216.994 734.201 209.208 733.124 203.263 734.824 Z"
opacity="1" fill="rgb(110,160,56)" fill-rule="evenodd" />
<path d="
M 200.96 599.085
C 201.118 598.455 201.212 597.82 201.325 597.18
C 205.397 596.797 209.825 597.612 213.953 597.581
C 221.247 597.527 228.922 596.78 236.165 597.675
C 236.44 598.175 237.367 599.234 237.295 599.79
C 234.031 599.122 228.802 599.987 227.793 603.795
C 227.297 605.663 227.863 608.091 228.496 609.865
C 230.074 614.292 232.47 618.526 234.44 622.794
C 238.589 631.782 242.78 640.83 246.614 649.955
C 248.239 653.824 249.909 657.682 251.494 661.567
C 251.863 662.471 252.555 665.271 253.436 665.607
C 258.445 650.493 265.309 635.993 271.442 621.308
C 273.139 617.243 274.797 613.266 276.219 609.096
C 276.804 607.379 277.688 605.295 277.185 603.459
C 276.096 599.477 270.524 599.878 267.298 599.694
C 267.238 598.831 267.135 597.787 267.343 596.945
C 273.828 596.66 280.488 597.279 287.005 597.288
C 289.341 597.292 293.111 596.444 295.24 597.42
C 295.292 598.086 295.534 599.056 295.313 599.688
C 285.312 599.803 282.249 611.094 278.769 618.615
C 273.578 629.835 269.517 641.592 264.708 652.985
C 261.595 660.362 258.606 667.79 255.653 675.235
C 254.169 678.975 252.328 682.791 251.253 686.665
C 250.379 686.9 249.067 686.49 248.229 686.215
C 247.291 684.558 246.801 682.358 246.041 680.574
C 244.183 676.213 242.129 671.935 240.205 667.603
C 233.255 651.957 226.529 636.177 219.166 620.727
C 217.109 616.411 215.3 611.963 213.019 607.756
C 211.958 605.799 210.913 603.573 209.115 602.171
C 206.711 600.296 203.872 599.957 200.958 599.782
C 200.642 599.447 200.727 599.663 200.96 599.085 Z"
opacity="1" fill="rgb(114,161,57)" fill-rule="evenodd" />
<path d="
M 230.458 844.129
C 231.862 843.856 233.156 843.918 234.576 843.929
C 236.018 845.875 236.751 849.191 237.478 851.503
C 238.857 855.888 240.552 860.174 241.784 864.611
C 242.271 866.363 242.76 868.116 243.248 869.867
C 243.378 870.333 243.551 871.564 243.968 871.705
C 246.105 864.334 248.921 857.163 250.994 849.76
C 251.659 847.386 251.901 843.524 255.04 843.265
C 257.712 843.695 258.207 846.925 258.719 849.079
C 260.088 854.828 261.929 860.533 263.702 866.164
C 264.191 867.717 264.617 869.297 264.945 870.892
C 265.022 871.268 265.05 872.175 265.41 872.333
C 267.911 866.05 269.554 859.212 271.519 852.735
C 272.358 849.969 273.029 846.355 274.634 843.936
C 275.883 843.71 277.127 843.691 278.384 843.874
C 277.561 851.946 273.723 860.106 270.868 867.637
C 269.658 870.827 269.218 875.453 267.184 878.197
C 266.21 878.59 264.595 878.378 263.671 877.92
C 262.148 876.552 262.138 874.128 261.486 872.309
C 259.707 867.341 258.278 862.103 256.834 857.027
C 256.401 855.504 255.749 854.046 255.349 852.524
C 255.21 851.998 255.266 850.55 254.567 851.138
C 252.51 857.531 250.494 863.969 248.489 870.387
C 247.673 872.997 247.214 876.98 244.861 878.751
C 241.013 879.654 240.449 874.079 239.704 871.572
C 237.72 864.9 235.43 858.246 233.146 851.672
C 232.24 849.062 230.975 846.852 230.458 844.129 Z"
opacity="1" fill="rgb(3,5,3)" fill-rule="evenodd" />
<path d="
M 255.499 796.143
C 255.577 795.48 255.572 795.847 255.461 795.042
C 258.093 794.237 261.046 794.854 263.662 794.089
C 266.979 790.004 265.943 784.511 265.924 779.493
C 265.885 768.772 265.871 758.05 265.917 747.329
C 265.937 742.702 267.022 736.669 263.475 733.012
C 261.704 732.115 259.558 732.263 257.668 731.7
C 256.549 731.366 255.701 731.151 256.402 729.885
C 259.18 729.049 262.634 729.935 265.505 729.955
C 269.492 729.983 273.523 730.096 277.507 729.942
C 280.154 729.839 283.186 729.437 285.771 730.137
C 286.064 731.38 284.763 731.748 283.827 732.195
C 281.721 733.201 278.202 732.228 276.712 734.313
C 275.69 737.148 275.966 740.82 275.911 743.802
C 275.81 749.332 275.648 754.939 275.938 760.463
C 286.376 759.812 296.936 761.004 307.387 760.275
C 307.615 758.401 307.322 756.389 307.312 754.5
C 307.29 750.666 307.315 746.833 307.309 743
C 307.305 740.757 307.939 737.414 307.04 735.333
C 305.746 732.337 302.704 732.595 300.082 732.151
C 298.813 731.937 296.997 731.814 297.226 730.172
C 299.339 729.509 301.461 730.003 303.624 730.05
C 308.413 730.157 313.212 730.26 318.003 730.239
C 320.869 730.226 324.586 729.42 327.341 730.343
C 327.283 730.913 327.3 731.369 326.873 731.777
C 323.808 733.031 320.394 731.135 318.129 734.527
C 317.311 735.752 317.314 737.457 317.236 738.872
C 317.067 741.957 317.156 745.039 317.204 748.127
C 317.365 758.558 317.259 768.996 317.318 779.428
C 317.335 782.472 317.142 785.621 317.572 788.637
C 317.737 789.8 317.449 791.058 318.105 792.115
C 319.918 795.038 324.243 794.723 327.212 795.28
C 327.223 795.914 327.245 796.386 326.943 796.963
C 320.637 796.578 314.319 796.477 307.997 796.637
C 304.558 796.724 300.401 797.429 297.042 796.732
C 296.854 796.136 296.917 795.527 296.887 794.908
C 299.295 794.539 302.723 794.992 304.924 794.016
C 307.99 791.694 307.239 788.484 307.255 785
C 307.286 778.517 306.955 771.852 307.44 765.392
C 306.977 764.923 306.055 765.12 305.418 765.109
C 303.454 765.076 301.466 765.148 299.506 765.043
C 294.325 764.766 289.068 764.883 283.873 764.946
C 281.204 764.978 278.191 764.582 275.578 765.123
C 275.955 771.868 275.694 778.7 275.716 785.456
C 275.723 787.594 275.07 791.57 276.646 793.268
C 278.309 795.06 282.486 794.525 284.723 795.246
C 284.786 795.787 284.789 796.249 284.74 796.787
C 281.317 797.25 277.466 796.709 274.004 796.67
C 267.872 796.601 261.745 796.791 255.631 797.117
C 255.485 796.531 255.539 796.854 255.499 796.143 Z"
opacity="1" fill="rgb(107,158,53)" fill-rule="evenodd" />
<path d="
M 292.685 844.183
C 300.69 844.278 309.119 845.083 317.09 844.202
C 317.241 845.533 317.044 846.834 317.046 848.157
C 315.162 848.749 312.486 848.182 310.508 848.164
C 305.968 848.121 301.4 848.092 296.874 848.392
C 296.671 851.659 296.209 855.709 296.802 858.932
C 301.108 858.468 305.671 858.958 310.013 858.883
C 311.532 858.857 314.064 858.274 315.442 858.87
C 315.424 859.976 315.82 861.705 315.392 862.714
C 309.274 862.429 302.947 862.472 296.832 862.79
C 296.498 866.565 296.88 870.37 296.807 874.148
C 297.036 874.358 298.004 874.142 298.349 874.144
C 299.466 874.15 300.582 874.149 301.698 874.132
C 305.702 874.073 309.707 874.083 313.71 874.026
C 314.865 874.009 317.447 873.626 318.393 874.307
C 318.338 875.532 318.457 876.856 318.534 878.089
C 316.982 878.612 314.646 878.191 313.003 878.192
C 308.832 878.196 304.666 878.137 300.499 878.007
C 298.241 877.936 295.027 878.796 292.909 878.049
C 292.987 866.815 291.749 855.393 292.685 844.183 Z"
opacity="1" fill="rgb(6,7,5)" fill-rule="evenodd" />
<path d="
M 358.063 147.892
C 358.144 148.412 357.385 148.744 357.585 149.244
C 357.959 150.182 359.339 151.027 360.07 151.69
C 361.969 153.414 363.892 155.102 365.742 156.881
C 370.736 161.683 374.703 167.498 378.997 172.901
C 385.4 180.959 391.269 190.41 395.628 199.733
C 398.011 204.83 400.34 209.996 402.572 215.163
C 403.579 217.497 404.263 219.821 405.481 222.044
C 404.278 221.327 401.935 221.738 400.532 221.581
C 395.866 221.057 391.275 220.536 386.67 219.545
C 373.679 216.75 360.902 211.529 350.758 202.758
C 341.815 195.027 335.811 185.133 332.186 173.939
C 328.541 162.68 327.551 150.585 322.65 139.718
C 319.878 133.573 316.005 127.831 310.846 123.431
C 308.978 121.839 306.949 120.442 304.862 119.157
C 303.72 118.453 302.392 117.962 301.542 116.905
C 304.767 115.55 309.272 115.919 312.744 115.876
C 320.771 115.777 328.66 116.033 336.639 116.869
C 362.028 119.528 389.392 129.556 406.132 149.614
C 413.932 158.96 419.061 169.844 422.568 181.423
C 424.716 188.515 426.37 196.308 426.293 203.754
C 427.036 204.07 428.198 203.8 429.002 203.802
C 431.169 203.81 433.336 203.816 435.502 203.827
C 443.169 203.869 450.835 203.887 458.501 203.899
C 465.67 203.911 472.841 203.882 480.006 204.025
C 507.434 204.572 538.694 205.029 558.621 227.135
C 584.992 256.39 582.259 307.378 550.961 332.218
C 539.777 341.093 526.633 347.13 512.679 350.097
C 499.948 352.805 486.963 353.101 474.002 353.092
C 468.502 353.088 463.001 353.127 457.501 353.125
C 454.569 353.125 450.981 353.426 448.147 352.679
C 448.213 349.951 448.349 347.201 448.57 344.485
C 450.889 343.731 454.068 344.236 456.502 344.229
C 462.169 344.214 467.835 344.214 473.501 344.182
C 491.754 344.081 510.867 341.355 525.234 328.996
C 545.693 311.397 547.702 277.321 534.929 254.655
C 529.996 245.901 522.29 238.948 513.465 234.277
C 500.116 227.211 485.626 227.373 471.011 226.515
C 464.377 226.126 457.649 226.345 450.998 226.306
C 444.475 226.268 437.894 225.976 431.378 226.185
C 429.714 224.34 428.772 220.704 427.778 218.407
C 425.661 213.516 423.248 208.83 420.638 204.188
C 409.788 184.892 394.398 168.495 376.044 156.205
C 371.37 153.075 366.363 149.981 361.246 147.625
C 359.489 146.816 357.397 145.47 355.453 145.34
C 355.289 146.508 357.234 147.229 358.063 147.892 Z"
opacity="1" fill="rgb(141,179,58)" fill-rule="evenodd" />
<path d="
M 309.444 683.624
C 309.529 682.952 309.574 682.34 309.562 681.656
C 312.566 681.19 315.813 681.364 318.757 680.636
C 321.372 678.818 322.12 675.514 322.46 672.631
C 323.041 667.695 322.672 662.478 322.685 657.509
C 322.72 644.576 322.569 631.644 322.57 618.711
C 322.57 615.145 322.707 611.546 322.445 607.995
C 322.328 606.409 322.376 604.806 321.369 603.472
C 319.275 600.701 316.319 599.508 312.95 599.419
C 311.82 599.389 310.752 599.696 309.625 599.578
C 309.706 598.828 309.762 598.083 309.863 597.334
C 311.219 596.433 313.452 597.068 315.022 597.154
C 319.178 597.381 323.344 597.299 327.504 597.332
C 338.836 597.42 350.169 597.439 361.502 597.427
C 365.169 597.423 368.836 597.418 372.502 597.41
C 374.517 597.405 376.701 597.172 378.682 597.593
C 378.7 601.717 378.588 605.872 378.813 609.992
C 378.912 611.806 379.675 614.151 379.212 615.927
C 376.921 616.59 376.665 614.192 376.274 612.558
C 375.638 609.906 374.615 607.422 373.172 605.111
C 372.625 604.235 372.109 603.103 371.068 602.732
C 367.481 601.454 362.759 602.125 359.009 602.103
C 351.194 602.057 343.196 601.636 335.406 602.294
C 335.618 609.35 335.428 616.445 335.435 623.505
C 335.439 627.562 335.739 631.669 335.604 635.717
C 341.862 635.92 348.176 635.913 354.442 635.723
C 357.136 635.642 360.165 636.006 362.763 635.129
C 366.718 633.795 368.5 628.922 368.104 625.151
C 368.573 624.687 370.869 624.123 371.463 624.331
C 370.821 631.007 371.187 638.07 371.288 644.781
C 371.326 647.283 372.212 650.709 371.501 653.108
C 370.92 653.47 370.192 653.429 369.523 653.43
C 368.568 651.012 369.218 647.456 367.714 645.322
C 364.885 641.308 361.131 641.064 356.593 640.851
C 349.652 640.526 342.684 640.894 335.74 640.8
C 335.277 643.722 335.681 647.029 335.675 649.997
C 335.663 656.163 335.621 662.329 335.616 668.496
C 335.614 671.338 334.711 675.977 336.901 678.2
C 338.218 678.668 340.005 678.582 341.405 678.605
C 344.539 678.656 347.674 678.618 350.809 678.616
C 359.056 678.609 369.2 679.818 375.652 673.627
C 378.991 670.423 380.943 665.921 382.877 661.8
C 383.856 661.896 384.77 662.062 385.718 662.324
C 385.778 663.978 384.062 666.566 383.517 668.187
C 381.76 673.414 379.818 678.617 377.809 683.746
C 372.419 684.017 366.908 683.662 361.504 683.674
C 344.152 683.712 326.758 683.335 309.447 684.36
C 309.353 683.909 309.367 684.154 309.444 683.624 Z"
opacity="1" fill="rgb(113,163,59)" fill-rule="evenodd" />
<path d="
M 342.914 794.91
C 345.061 794.577 347.682 794.185 349.419 792.764
C 352.407 790.322 353.925 784.956 355.464 781.542
C 358.861 774.006 362.18 766.437 365.558 758.888
C 367.546 754.447 369.862 750.114 371.534 745.537
C 373.221 740.917 375.379 736.473 377.038 731.848
C 377.747 729.873 377.912 727.337 380.513 727.702
C 387.455 745.11 395.377 762.182 402.655 779.476
C 405.277 785.706 408.222 794.919 416.251 795.236
C 416.253 795.767 416.189 796.452 415.812 796.848
C 406.74 797.045 397.683 796.677 388.613 797.297
C 388.151 796.808 388.137 796.026 387.991 795.395
C 390.694 794.13 394.049 794.612 396.655 793.263
C 396.702 791.178 395.586 788.735 394.896 786.794
C 393.467 782.779 391.861 778.814 390.511 774.773
C 389.373 773.905 385.502 774.662 383.999 774.683
C 379.167 774.752 374.333 774.731 369.5 774.739
C 367.882 774.742 364.935 774.176 363.502 774.835
C 361.059 780.586 356.574 787.118 356.821 793.612
C 359.031 794.557 361.704 794.754 364.034 795.385
C 364.223 795.988 364.096 796.436 364.047 797.055
C 362.725 797.548 360.767 797.124 359.37 797.102
C 355.57 797.043 351.778 796.88 347.976 796.92
C 346.59 796.935 345.222 797.1 343.837 797.121
C 343.756 797.122 342.768 797.152 342.726 797.108
C 342.561 796.933 342.491 795.257 342.452 795.082
C 342.606 795.025 342.76 794.968 342.914 794.91 Z
M 365.899 769.543
C 365.732 770.206 365.812 769.85 365.668 770.612
C 367.119 771.339 369.87 770.882 371.505 770.862
C 375.935 770.81 380.384 770.714 384.814 770.841
C 386.015 770.875 388.257 770.357 389.314 770.835
C 386.846 766.552 385.147 761.642 383.247 757.082
C 381.364 752.561 379.156 748.176 377.296 743.654
C 373.76 752.341 369.657 760.928 365.899 769.543 Z"
opacity="1" fill="rgb(108,157,54)" fill-rule="evenodd" />
<path d="
M 352.462 858.603
C 353.93 849.477 360.706 843.57 370.025 843.624
C 373.622 843.645 377.131 845.099 380.099 847.052
C 381.574 848.023 382.992 848.823 382.471 850.772
C 382.003 851.42 380.953 852.58 380.108 852.556
C 377.488 850.529 375.427 848.496 372.051 847.806
C 360.605 845.467 352.42 859.799 359.175 868.912
C 360.82 871.131 363.168 872.737 365.774 873.624
C 367.565 874.233 369.607 874.548 371.496 874.337
C 373.318 874.134 375.181 873.689 376.685 872.592
C 377.672 871.871 378.342 870.814 379.411 870.195
C 380.365 870.183 381.201 870.219 382.059 870.67
C 382.473 871.587 382.878 872.394 382.831 873.422
C 382.254 874.352 380.922 874.874 379.994 875.384
C 377.284 876.873 374.975 878.111 371.845 878.37
C 360.404 879.316 351.177 870.255 352.462 858.603 Z"
opacity="1" fill="rgb(6,6,6)" fill-rule="evenodd" />
<path d="
M 358.063 147.892
C 361.109 149.779 363.81 152.362 366.602 154.599
C 373.68 160.268 380.492 166.494 386.638 173.164
C 394.588 181.793 401.709 190.853 407.922 200.818
C 421.957 223.328 431.167 249.932 435.09 276.112
C 437.105 289.558 437.969 303.006 438.406 316.584
C 439.062 336.954 438.194 357.245 435.91 377.493
C 432.848 404.631 425.719 432.941 407.98 454.461
C 403.704 459.649 399.187 463.819 393.799 467.835
C 392.564 468.755 391.295 469.561 389.987 470.364
C 389.518 470.652 388.898 471.332 388.291 471.156
C 389.642 468.307 392.156 465.859 393.753 463.098
C 397.526 456.573 400.507 449.825 402.998 442.72
C 406.265 433.398 408.504 423.745 410.495 414.086
C 417.432 380.426 418.376 345.774 418.309 311.499
C 418.285 299.278 417.458 287.153 416.445 274.995
C 414.962 257.183 412.501 238.642 405.481 222.044
C 404.263 219.821 403.579 217.497 402.572 215.163
C 400.34 209.996 398.011 204.83 395.628 199.733
C 391.269 190.41 385.4 180.959 378.997 172.901
C 374.703 167.498 370.736 161.683 365.742 156.881
C 363.892 155.102 361.969 153.414 360.07 151.69
C 359.339 151.027 357.959 150.182 357.585 149.244
C 357.385 148.744 358.144 148.412 358.063 147.892 Z"
opacity="1" fill="rgb(135,176,64)" fill-rule="evenodd" />
<path d="
M 392.335 876.999
C 396.049 870.016 399.384 862.894 402.637 855.678
C 404.343 851.893 405.438 847.151 407.927 843.809
C 409.195 843.797 410.473 843.831 411.73 844.004
C 413.332 846.554 414.338 849.403 415.636 852.106
C 418.22 857.49 420.653 862.934 423.268 868.307
C 424.244 870.313 425.126 872.36 426.075 874.378
C 426.594 875.484 427.464 876.988 427.336 878.249
C 425.963 878.261 424.567 878.554 423.2 878.245
C 421.701 875.381 420.564 872.276 419.061 869.385
C 416.646 868.999 413.866 869.549 411.42 869.64
C 407.958 869.767 404.406 869.447 400.964 869.732
C 399.131 872.453 397.648 875.583 396.206 878.53
C 395.181 878.775 392.759 878.484 392.023 877.772
C 392.127 877.514 392.231 877.256 392.335 876.999 Z
M 402.988 864.067
C 402.74 864.727 402.853 864.364 402.672 865.162
C 403.692 865.889 405.593 865.576 406.813 865.568
C 410.315 865.544 413.816 865.6 417.316 865.618
C 417.392 865.487 417.017 864.853 416.989 864.793
C 416.523 863.793 416.147 862.762 415.695 861.756
C 413.822 857.597 411.756 853.496 410.089 849.259
C 408.834 849.91 408.174 852.046 407.631 853.324
C 406.121 856.879 404.729 860.628 402.988 864.067 Z"
opacity="1" fill="rgb(4,5,5)" fill-rule="evenodd" />
<path d="
M 403.997 598.12
C 404.075 597.439 403.967 597.774 404.368 597.131
C 415.52 597.123 426.715 597.33 437.883 597.421
C 445.469 597.484 453.852 597.182 460.915 600.385
C 464.982 602.229 468.538 605.009 470.944 608.805
C 475.981 616.756 474.347 627.618 467.818 634.244
C 463.727 638.397 458.341 639.256 453.16 641.27
C 454.78 645.392 458.374 649.031 460.89 652.658
C 464.16 657.373 467.588 661.973 470.897 666.66
C 474.369 671.577 477.926 676.611 483.189 679.752
C 486.029 681.446 489.419 680.757 492.368 681.913
C 492.566 682.681 492.713 683.456 492.853 684.235
C 487.837 683.891 482.664 683.548 477.64 683.927
C 474.835 684.138 471.581 684.491 468.789 684.104
C 466.342 681.025 464.485 677.397 462.165 674.204
C 454.873 664.167 447.351 654.293 440.423 644.007
C 437.553 643.239 432.233 643.476 429.396 644.365
C 429.72 652.691 429.401 661.115 429.376 669.451
C 429.365 673.236 429.51 678.135 433.05 680.556
C 435.576 682.284 439.644 681.589 442.52 681.876
C 442.607 682.669 442.955 683.389 442.907 684.233
C 434.193 683.806 425.351 683.499 416.626 683.906
C 412.618 684.093 407.752 685.086 403.812 684.215
C 403.59 683.392 403.633 682.53 403.565 681.679
C 406.673 681.4 409.779 681.079 412.898 680.842
C 414.442 680.063 415.363 677.695 416.03 676.197
C 417.136 673.714 416.864 671.071 416.88 668.424
C 416.899 665.22 417.07 662.021 417.094 658.809
C 417.187 646.425 417.107 634.039 417.135 621.654
C 417.143 618.361 417.115 615.068 417.115 611.774
C 417.115 609.521 417.19 606.92 416.175 604.843
C 413.889 600.167 408.534 599.571 403.938 599.878
C 403.885 599.283 403.963 598.713 403.997 598.12 Z
M 429.453 604.124
C 428.911 609.99 429.372 616.109 429.368 622.002
C 429.364 627.571 428.904 633.384 429.485 638.923
C 438.044 638.636 447.859 639.317 454.269 632.366
C 461.106 624.951 460.111 612.419 452.085 606.282
C 448.064 603.208 442.587 602.32 437.637 602.28
C 435.211 602.261 431.796 602.051 429.575 603.122
C 429.448 603.826 429.483 603.492 429.453 604.124 Z"
opacity="1" fill="rgb(114,165,57)" fill-rule="evenodd" />
<path d="
M 432.008 796.148
C 432.09 795.484 431.988 795.839 432.412 795.115
C 435.66 794.395 440.004 795.408 442.056 792.166
C 442.885 790.855 442.583 788.966 442.578 787.496
C 442.568 784.331 442.593 781.164 442.596 777.998
C 442.606 768.489 442.394 759.002 442.398 749.492
C 442.4 746.492 442.418 743.493 442.418 740.493
C 442.418 739.09 442.665 737.388 442.284 736.028
C 441.36 732.731 438.235 732.191 435.375 731.603
C 434.864 731.498 432.729 731.437 432.461 731.017
C 432.286 730.742 432.755 729.542 432.845 729.282
C 440.696 729.22 448.567 729.552 456.423 729.576
C 464.185 729.599 472.094 729.317 478.915 733.663
C 485.525 737.874 488.421 747.303 484.188 754.261
C 481.038 759.439 475.244 762.982 469.288 763.949
C 469.341 764.621 470.3 765.413 470.732 765.978
C 471.939 767.557 473.097 769.176 474.297 770.761
C 479.337 777.416 483.979 784.763 490.138 790.465
C 492.178 792.354 494.744 794.139 497.477 794.819
C 498.055 794.963 500.862 795.292 501.078 795.842
C 501.265 796.318 500.885 796.754 500.571 797.023
C 498.604 797.422 496.403 797.028 494.4 797.052
C 490.667 797.097 486.931 797.23 483.227 797.538
C 482.539 797.167 481.937 795.716 481.489 795.027
C 480.305 793.202 478.969 791.415 477.627 789.702
C 473.795 784.81 469.956 779.878 466.429 774.76
C 464.442 771.877 462.747 768.113 460.013 765.861
C 457.873 765.332 454.456 765.347 452.311 765.841
C 452.449 772.39 452.098 778.95 452.175 785.502
C 452.201 787.774 451.599 791.511 453.341 793.287
C 454.261 794.226 455.582 794.188 456.802 794.369
C 458.711 794.652 460.613 794.991 462.519 795.291
C 462.761 795.87 462.45 796.342 462.159 796.844
C 461.191 797.309 459.832 796.975 458.798 796.927
C 456.869 796.837 454.933 796.853 453.003 796.823
C 446.065 796.714 439.137 796.916 432.208 797.083
C 431.991 796.559 432.079 796.865 432.008 796.148 Z
M 452.348 734.309
C 451.989 739.005 452.242 743.792 452.235 748.501
C 452.229 752.856 451.904 757.342 452.277 761.682
C 459.705 761.21 467.646 761.822 472.479 754.887
C 476.534 749.068 474.662 740.322 468.955 736.412
C 466.057 734.428 462.471 733.936 459.046 733.732
C 456.94 733.606 454.306 733.411 452.348 734.309 Z"
opacity="1" fill="rgb(112,161,55)" fill-rule="evenodd" />
<path d="
M 440.171 844.131
C 442.38 843.652 444.803 844.038 447.057 844.054
C 452.444 844.091 458.338 843.58 463.058 846.645
C 466.609 848.951 469.358 855.037 467.22 859.06
C 465.545 862.211 462.467 864.171 459.188 865.275
C 461.765 868.266 463.567 871.904 466.225 874.795
C 466.868 875.495 468.983 876.698 468.734 877.755
C 466.297 879.174 463.618 878.298 462.033 876.211
C 459.716 873.159 458.064 869.492 455.413 866.715
C 452.642 865.567 447.813 865.952 444.872 866.29
C 444.047 870.21 444.978 874.267 444.192 878.243
C 443.402 878.644 441.127 878.483 440.324 878.105
C 440.133 866.785 440.537 855.449 440.171 844.131 Z
M 444.916 848.295
C 444.58 851.514 444.769 854.762 444.746 857.994
C 444.738 859.086 444.387 861.006 444.889 861.954
C 448.504 861.552 452.231 861.997 455.871 861.78
C 457.501 861.683 459.336 861.623 460.715 860.631
C 465.156 857.436 463.829 851.425 459.506 849.111
C 457.769 848.181 455.808 848.208 453.889 848.16
C 450.886 848.086 447.905 847.903 444.916 848.295 Z"
opacity="1" fill="rgb(5,4,5)" fill-rule="evenodd" />
<path d="
M 448.302 359.31
C 454.604 358.322 461.133 358.365 467.495 358.062
C 481.427 357.399 495.97 358.019 508.365 365.167
C 519.542 371.611 526.936 382.723 534.152 393.063
C 542.637 405.222 551.509 417.14 559.742 429.461
C 560.159 429.5 560.773 428.363 560.994 428.075
C 561.952 426.822 562.893 425.514 563.804 424.225
C 567.671 418.753 571.779 413.457 575.646 407.987
C 579.76 402.168 583.97 396.418 587.944 390.502
C 589.839 387.681 591.888 385.048 593.267 381.911
C 594.661 378.74 595.666 372.944 592.62 370.342
C 587.971 366.371 582.083 368.387 576.742 367.226
C 576.645 365.916 576.769 364.62 576.945 363.322
C 578.695 362.713 581.161 363.194 583.007 363.204
C 587.175 363.226 591.342 363.143 595.51 363.164
C 605.845 363.217 616.173 363.118 626.508 363.09
C 629.507 363.082 632.509 363.189 635.507 363.135
C 637.156 363.105 639.043 362.793 640.647 363.205
C 640.725 364.438 640.811 365.906 640.423 367.092
C 638.346 367.924 635.221 367.415 632.971 367.784
C 628.449 368.526 624.081 370.432 620.248 372.912
C 616.899 375.08 614.324 377.942 611.692 380.895
C 606.303 386.941 601.678 393.632 596.82 400.098
C 590.886 407.997 585.219 416.105 579.223 423.953
C 575.376 428.989 570.818 434.074 567.687 439.579
C 568.05 440.523 568.94 441.253 569.527 442.08
C 570.981 444.129 572.446 446.165 573.891 448.22
C 578.568 454.874 583.273 461.506 588.016 468.113
C 594.995 477.835 601.977 487.603 609.483 496.927
C 617 506.266 625.077 515.638 635.81 521.375
C 640.096 523.665 644.981 525.283 649.757 526.156
C 652.588 526.673 655.838 526.466 658.569 527.309
C 658.608 528.422 658.71 530.617 658.296 531.608
C 654.322 532.301 650.157 532.096 646.144 532.457
C 628.762 534.023 607.938 532.238 594.033 520.691
C 586.35 514.31 580.344 505.764 574.634 497.655
C 569.627 490.543 564.339 483.621 559.389 476.466
C 556.195 471.85 553.222 466.449 549.292 462.436
C 548.845 463.857 547.588 465.258 546.745 466.506
C 544.737 469.48 542.59 472.364 540.57 475.332
C 533.768 485.329 526.511 495.004 519.763 505.038
C 516.833 509.395 509.785 517.252 513.644 522.862
C 516.098 526.43 520.978 526.834 524.917 527.185
C 526.323 527.311 527.984 527.135 529.286 527.714
C 529.433 528.992 529.497 530.142 529.393 531.422
C 508.812 531.069 488.062 530.55 467.488 531.344
C 466.946 530.638 467.52 528.449 467.565 527.584
C 469.673 526.444 473.004 526.862 475.37 526.515
C 479.685 525.881 483.889 524.201 487.49 521.737
C 492.322 518.432 495.956 513.988 499.599 509.47
C 503.459 504.682 507.253 499.907 510.951 494.99
C 517.837 485.831 524.683 476.636 531.514 467.432
C 533.873 464.254 536.214 461.053 538.601 457.895
C 539.767 456.353 541.271 454.755 542.16 453.047
C 541.77 452.052 540.761 451.23 540.135 450.368
C 538.545 448.179 536.907 446.029 535.312 443.844
C 530.475 437.216 525.677 430.556 520.863 423.911
C 515.548 416.576 510.191 409.273 504.889 401.929
C 498.376 392.907 492.026 383.389 483.645 375.952
C 474.212 367.581 461.026 362.915 448.4 363.596
C 448.02 362.281 448.281 360.674 448.302 359.31 Z"
opacity="1" fill="rgb(28,134,200)" fill-rule="evenodd" />
<path d="
M 482.866 844.275
C 485.689 843.597 489.108 844.244 492.01 844.262
C 496.876 844.293 502.14 843.659 506.956 844.334
C 506.871 845.522 506.875 846.777 506.903 847.97
C 504.421 848.39 501.751 848.125 499.237 848.094
C 495.231 848.046 491.235 848.101 487.229 848.114
C 486.971 851.679 487.071 855.487 487.29 859.055
C 493.298 858.911 499.342 859.208 505.34 858.965
C 505.431 860.237 505.389 861.561 505.185 862.821
C 500.964 862.93 496.725 862.798 492.503 862.74
C 490.865 862.718 488.479 862.055 487.075 862.971
C 486.713 865.685 486.947 868.455 486.946 871.189
C 486.945 872.004 486.681 873.503 487.14 874.192
C 489.724 873.802 492.725 874.173 495.361 874.182
C 499.556 874.196 503.863 873.928 508.043 874.237
C 508.07 875.506 508.15 876.869 508.281 878.129
C 502.762 878.088 497.242 877.948 491.721 878.01
C 488.74 878.044 485.667 878.45 482.701 878.149
C 482.247 866.908 482.84 855.528 482.866 844.275 Z"
opacity="1" fill="rgb(7,7,6)" fill-rule="evenodd" />
<path d="
M 506.934 638.611
C 507.731 633.518 508.306 628.791 510.259 623.958
C 514.478 613.517 522.317 604.226 532.614 599.33
C 539.391 596.107 547.578 594.768 555.046 594.883
C 560.069 594.96 565.098 596.543 569.72 598.398
C 572.18 599.385 575.382 601.582 578.164 600.576
C 579.731 599.095 580.979 597.066 581.938 595.148
C 582.839 595.266 583.719 595.469 584.519 595.902
C 584.539 601.941 584.333 608.017 584.935 614.049
C 585.177 616.482 585.525 618.917 585.828 621.344
C 585.988 622.624 586.425 623.954 586.154 625.252
C 585.233 625.464 584.275 625.641 583.332 625.579
C 581.907 619.02 578.643 611.701 573.615 607.174
C 562.052 596.76 543.225 597.277 532.638 609.029
C 529.207 612.838 526.969 617.586 525.189 622.338
C 518.086 641.302 522.351 670.418 543.63 678.304
C 546.726 679.451 549.953 679.957 553.24 680.152
C 557.247 680.389 561.175 679.948 565.014 678.788
C 570.679 677.076 576.702 673.569 580.625 669.068
C 582.304 667.141 583.309 663.931 585.193 662.38
C 587.101 662.467 588.184 663.771 586.909 665.621
C 584.626 668.932 581.741 672.373 578.716 675.028
C 570.331 682.388 560.184 686.695 548.911 686.208
C 534.463 685.583 519.936 677.547 512.626 664.878
C 508.095 657.024 506.241 647.61 506.934 638.611 Z"
opacity="1" fill="rgb(23,116,184)" fill-rule="evenodd" />
<path d="
M 515.343 729.791
C 517.168 729.38 519.151 729.621 521.013 729.655
C 524.011 729.711 527.009 729.674 530.008 729.691
C 531.245 729.698 534.147 729.173 535.088 729.899
C 537.55 733.769 539.15 738.254 541.135 742.377
C 545.414 751.266 549.635 760.208 553.755 769.171
C 555.326 772.59 556.843 776.033 558.441 779.439
C 558.746 780.089 559.268 782.26 559.891 782.544
C 564.372 774.279 567.992 765.377 572.155 756.916
C 576.492 748.104 581.531 739.152 584.249 729.692
C 588.391 729.371 592.613 729.668 596.768 729.642
C 598.915 729.628 601.446 729.191 603.527 729.802
C 603.603 730.254 603.727 730.664 603.666 731.125
C 601.471 731.179 598.138 731.312 596.25 732.466
C 593.336 736.004 594.229 742.45 594.226 746.7
C 594.219 757.965 594.299 769.23 594.313 780.496
C 594.318 784.432 593.587 789.592 596.219 792.763
C 596.791 793.452 597.294 794.331 598.144 794.683
C 599.896 794.847 605.265 793.997 604.243 796.837
C 601.684 797.275 598.616 796.795 596.004 796.755
C 591.167 796.681 586.338 796.785 581.504 796.87
C 579.842 796.899 578.17 796.91 576.51 796.994
C 576.064 797.017 575.176 797.187 574.815 796.823
C 574.516 796.522 574.436 795.604 574.35 795.224
C 576.705 794.969 580.065 795.247 582.208 794.291
C 585.56 791.286 584.233 784.954 584.275 780.817
C 584.372 771.212 584.754 761.604 584.587 752
C 584.525 748.484 585.023 744.623 584.458 741.166
C 578.145 754.882 571.707 768.526 564.949 782.038
C 563.035 785.864 561.444 789.852 559.474 793.654
C 558.807 794.942 558.41 796.563 557.485 797.685
C 556.922 798.043 556.505 798.061 555.917 797.784
C 555.227 796.132 554.856 794.362 554.157 792.713
C 549.58 781.921 544.178 771.406 539.178 760.804
C 536.959 756.1 534.961 751.29 532.75 746.58
C 532.284 745.588 531.831 744.606 531.27 743.662
C 531.054 743.3 530.99 742.362 530.625 742.574
C 530.526 742.631 530.475 744.908 530.447 745.379
C 530.267 748.407 530.255 751.46 530.271 754.493
C 530.317 762.991 530.415 771.493 530.323 779.992
C 530.274 784.542 529.465 789.958 531.215 794.254
C 533.826 794.519 537.019 793.758 539.443 795.013
C 539.846 795.614 539.866 796.261 539.706 796.955
C 538.401 797.325 536.87 796.962 535.527 796.948
C 532.127 796.914 528.706 796.786 525.307 796.852
C 522.332 796.91 518.218 797.872 515.357 797.037
C 514.642 795.572 515.543 795.223 516.828 795.041
C 519.002 794.733 521.221 794.897 523.4 794.66
C 526.891 791.667 525.432 784.042 525.431 779.994
C 525.43 770.327 525.413 760.661 525.371 750.994
C 525.35 746.354 526.039 741.126 525.181 736.558
C 524.615 733.543 520.51 732.169 517.933 731.727
C 516.612 731.5 514.67 731.617 515.343 729.791 Z"
opacity="1" fill="rgb(111,162,54)" fill-rule="evenodd" />
<path d="
M 543.982 845.103
C 544.034 844.478 543.959 844.85 544.36 844.03
C 549.901 844.184 555.463 844.151 561.01 844.191
C 562.935 844.206 566.053 843.644 567.821 844.392
C 567.856 845.46 568.239 847.165 567.84 848.147
C 565.975 848.421 563.964 847.985 562.077 847.996
C 557.476 848.024 552.848 848.033 548.251 848.196
C 547.535 850.567 548.21 852.945 548.08 855.364
C 548.011 856.66 547.528 858.53 548.109 859.741
C 552.409 859.152 557.079 859.658 561.43 859.522
C 562.759 859.481 565.199 858.94 566.317 859.714
C 566.579 860.898 566.93 862.497 566.271 863.616
C 564.954 863.968 563.36 863.69 561.999 863.699
C 559.001 863.72 556 863.714 553.003 863.808
C 551.575 863.852 549.332 863.456 548.12 864.25
C 547.645 867.465 548.164 870.805 548.157 874.054
C 548.155 875.16 548.478 877.119 547.757 878.019
C 546.49 878.161 545.295 877.962 544.023 877.907
C 543.156 874.712 543.89 870.326 543.898 867.003
C 543.916 859.752 543.496 852.333 543.982 845.103 Z"
opacity="1" fill="rgb(6,6,5)" fill-rule="evenodd" />
<path d="
M 579.454 857.089
C 579.87 855.015 580.801 852.99 581.982 851.242
C 590.62 838.465 610.937 843.4 614.142 857.977
C 614.591 860.016 614.589 862.381 614.178 864.426
C 611.192 879.311 590.79 882.975 582.121 870.978
C 580.835 869.199 580.002 867.185 579.547 865.044
C 578.997 862.454 578.933 859.688 579.454 857.089 Z
M 583.927 858.597
C 583.246 863.74 584.722 869.139 589.146 872.179
C 596.598 877.299 608.444 873.129 609.658 863.785
C 610.369 858.313 608.216 852.654 603.394 849.699
C 595.823 845.06 585.118 849.605 583.927 858.597 Z"
opacity="1" fill="rgb(3,3,4)" fill-rule="evenodd" />
<path d="
M 605.944 596.466
C 614.969 596.813 623.969 596.861 633.004 596.896
C 635.68 596.906 638.353 596.966 641.028 597.009
C 641.989 597.024 643.464 596.691 644.331 597.056
C 644.364 597.928 644.127 598.825 644.245 599.699
C 641.78 599.704 638.562 599.051 636.329 600.397
C 635.368 600.977 634.662 601.929 633.894 602.728
C 633.399 603.244 632.676 603.85 632.365 604.507
C 631.966 605.35 632.132 606.582 632.106 607.494
C 632.043 609.668 631.996 611.836 631.951 614.011
C 631.792 621.664 630.985 629.861 631.815 637.471
C 635.487 637.123 639.313 637.363 643.005 637.353
C 653.108 637.324 663.235 637.815 673.325 637.74
C 672.943 630.036 673.312 622.209 673.391 614.494
C 673.422 611.387 674.227 606.873 672.7 604.037
C 670.268 599.521 665.505 598.98 660.934 599.416
C 660.904 598.573 660.999 597.73 660.99 596.886
C 664.588 596.351 668.392 597.05 672.012 597.129
C 680.909 597.325 690.124 597.73 698.994 597.141
C 699.225 597.886 699.225 598.584 699.363 599.34
C 696.966 599.259 693.268 598.936 691.036 599.943
C 689.302 600.726 687.221 603.357 686.448 605.081
C 685.764 606.605 686.206 609.123 686.212 610.763
C 686.226 615.012 686.261 619.261 686.261 623.51
C 686.261 636.174 686.376 648.838 686.402 661.502
C 686.416 668.133 685.382 675.285 689.296 681.043
C 690.062 681.59 691.11 681.332 692.011 681.421
C 693.574 681.575 695.102 681.84 696.682 681.846
C 697.269 681.848 698.303 681.657 698.809 681.913
C 698.826 682.614 698.928 683.45 698.738 684.133
C 693.583 684.794 688.197 684.056 683 684.118
C 675.677 684.206 668.111 684.935 660.826 684.388
C 660.538 683.572 660.746 682.584 660.838 681.744
C 663.067 681.591 667.108 682.163 669.022 680.837
C 673.551 677.698 673.165 672.934 673.205 668.003
C 673.273 659.554 672.795 650.923 673.406 642.503
C 671 642.196 668.257 642.609 665.809 642.61
C 660.372 642.614 654.937 642.649 649.501 642.667
C 645.44 642.681 641.375 642.727 637.315 642.678
C 635.389 642.655 633.455 642.234 631.544 642.539
C 632.105 646.097 631.823 649.908 631.781 653.503
C 631.716 659.003 631.639 664.512 631.729 670.012
C 631.78 673.105 631.332 678.178 634.161 680.314
C 636.746 682.267 640.777 681.108 643.647 681.807
C 643.854 682.636 643.781 683.528 643.834 684.376
C 631.329 684.207 618.85 684.397 606.352 684.483
C 605.968 683.615 606.11 682.667 606.163 681.74
C 608.656 681.616 612.397 681.869 614.711 680.889
C 616.363 680.189 617.845 677.859 618.487 676.249
C 619.27 674.287 619.055 671.894 619.054 669.826
C 619.054 666.214 619.008 662.604 618.973 658.995
C 618.856 647.167 618.765 635.331 618.77 623.502
C 618.771 619.336 618.784 615.169 618.814 611.003
C 618.828 609.001 619.203 606.48 618.465 604.579
C 616.515 599.558 610.686 599.003 606.134 599.155
C 606.055 598.243 606.087 597.376 605.944 596.466 Z"
opacity="1" fill="rgb(26,118,186)" fill-rule="evenodd" />
<path d="
M 619.3 795.287
C 621.245 794.914 623.285 795.039 625.197 794.53
C 626.9 793.32 627.91 790.891 628.852 789.09
C 630.822 785.324 632.413 781.392 634.295 777.586
C 639.293 767.477 643.859 756.878 648.018 746.399
C 650.401 740.394 653.543 734.404 655.129 728.134
C 655.957 727.881 656.796 727.831 657.655 727.751
C 663.588 745.453 672.093 762.328 679.383 779.516
C 681.246 783.909 683.196 789.707 686.795 793.016
C 688.683 794.752 691.608 794.163 693.532 795.537
C 694.033 795.895 693.646 796.812 693.237 797.069
C 691.102 797.471 688.675 797.057 686.499 797.058
C 681.834 797.061 677.17 797.154 672.505 797.162
C 670.642 797.165 667.909 797.862 666.144 797.287
C 665.561 797.097 665.01 796.241 664.56 795.853
C 664.812 795.276 666.016 795.311 666.625 795.163
C 668.734 794.652 670.864 794.365 672.806 793.343
C 673.378 787.345 669.408 780.671 667.671 775.092
C 658.679 775.478 649.512 774.808 640.496 774.859
C 638.546 779.27 636.822 783.76 635.03 788.239
C 634.469 789.641 633.025 792.072 633.825 793.525
C 636.186 794.545 639.193 794.99 641.726 795.421
C 641.819 795.987 641.734 796.531 641.507 797.059
C 640.103 797.328 638.601 796.967 637.175 796.992
C 632.942 797.067 628.735 796.93 624.503 796.916
C 622.509 796.91 619.566 797.795 619.3 795.287 Z
M 642.953 769.57
C 642.734 770.373 642.849 769.961 642.604 770.804
C 643.715 771.433 645.746 771.085 646.994 771.072
C 650.392 771.037 653.779 770.933 657.18 770.958
C 659.477 770.974 661.766 770.945 664.062 770.888
C 664.345 770.881 665.991 771.165 665.995 770.859
C 660.565 762.476 659.218 751.908 653.895 743.467
C 652.676 745.714 651.997 748.347 650.989 750.707
C 648.302 756.99 645.669 763.304 642.953 769.57 Z"
opacity="1" fill="rgb(107,160,51)" fill-rule="evenodd" />
<path d="
M 628.933 844.282
C 632.894 844.075 636.936 844.249 640.904 844.339
C 644.199 844.413 647.593 844.406 650.563 845.98
C 655.7 848.702 658.316 855.748 654.751 860.731
C 652.972 863.218 650.55 864.229 647.785 865.255
C 648.13 866.36 649.324 867.21 650.064 868.119
C 651.738 870.176 653.227 872.374 654.889 874.44
C 655.757 875.519 657.485 876.786 657.223 878.3
C 655.548 879.182 652.47 878.182 651.299 876.862
C 648.53 873.741 647.089 869.216 643.996 866.439
C 641.429 865.355 636.237 865.677 633.621 866.498
C 633.095 867.719 633.307 869.271 633.317 870.581
C 633.336 873.014 633 875.716 633.29 878.108
C 631.948 878.265 630.415 878.024 629.082 877.847
C 628.461 873.791 629.029 869.328 629.068 865.222
C 629.135 858.241 628.939 851.262 628.933 844.282 Z
M 633.341 848.367
C 633.187 851.739 633.291 855.115 633.317 858.492
C 633.323 859.238 633.04 861.223 633.619 861.703
C 638.131 861.445 644.009 863.002 648.324 861.154
C 652.956 859.169 653.522 852.398 649.226 849.816
C 644.725 847.111 638.346 848.114 633.341 848.367 Z"
opacity="1" fill="rgb(6,6,5)" fill-rule="evenodd" />
<path d="
M 688.967 843.903
C 690.18 843.856 691.375 843.919 692.585 844.001
C 695.695 847.546 698.167 852.102 700.65 856.108
C 701.406 857.327 702.672 860.417 703.878 861.069
C 704.936 860.136 705.576 858.43 706.334 857.24
C 709.002 853.051 711.416 847.25 715.168 843.961
C 716.621 843.774 718.178 844.027 719.593 844.363
C 716.276 851.657 709.46 857.352 706.564 864.897
C 705.427 867.857 706.131 871.401 706.176 874.499
C 706.191 875.61 706.497 877.221 705.905 878.223
C 704.528 878.251 703.165 878.205 701.795 878.123
C 701.686 875.261 701.832 872.362 701.864 869.496
C 701.877 868.353 702.188 866.774 701.724 865.7
C 700.839 863.65 699.064 861.836 697.889 859.937
C 694.741 854.845 690.975 849.641 688.537 844.202
C 688.68 844.102 688.823 844.002 688.967 843.903 Z"
opacity="1" fill="rgb(5,6,5)" fill-rule="evenodd" />
<path d="
M 710.438 759.588
C 711.569 755.023 712.138 750.988 714.426 746.757
C 720.666 735.221 733.924 727.34 747.103 727.848
C 750.756 727.989 754.126 728.971 757.511 730.299
C 760.207 731.356 762.688 733.059 765.752 732.619
C 766.733 731.342 767.113 729.729 768.093 728.457
C 768.769 728.274 769.448 728.211 770.146 728.254
C 770.353 732.892 770.149 737.54 770.287 742.181
C 770.372 745.049 770.84 747.863 770.817 750.734
C 770.228 750.979 769.631 750.902 769.002 750.896
C 767.821 749.424 767.798 746.62 767.042 744.846
C 765.006 740.065 761.239 736.437 756.617 734.134
C 745.397 728.544 732.359 733.744 726.389 744.454
C 718.053 759.41 719.942 786.496 738.594 792.872
C 746.782 795.672 755.556 794.041 762.46 789.048
C 764.315 787.706 765.976 786.082 767.503 784.376
C 769.02 782.68 769.806 780.807 772.346 780.925
C 771.835 784.033 768.92 786.785 766.794 788.949
C 759.549 796.319 748.338 799.954 738.142 797.937
C 733.796 797.078 729.568 795.964 725.713 793.7
C 713.778 786.692 708.811 772.888 710.438 759.588 Z"
opacity="1" fill="rgb(107,159,52)" fill-rule="evenodd" />
<path d="
M 713.396 683.083
C 713.569 682.428 713.482 682.803 713.635 681.953
C 715.507 679.905 719.705 681.277 721.817 678.983
C 724.538 676.027 726.276 671.573 727.964 667.974
C 730.925 661.662 733.826 655.368 736.494 648.923
C 741.332 637.24 746.491 625.675 751.475 614.054
C 754.046 608.059 757.394 601.673 758.83 595.293
C 759.813 595.011 761.086 594.927 762.061 595.253
C 764.547 601.679 767.469 607.943 770.213 614.262
C 776.752 629.318 783.133 644.438 789.773 659.444
C 791.881 664.208 793.907 668.976 796.29 673.614
C 797.504 675.976 798.706 678.747 801.062 680.201
C 803.351 681.613 805.887 681.473 808.389 681.914
C 808.351 682.688 808.196 683.463 808.251 684.241
C 803.439 684.839 798.486 683.697 793.647 683.966
C 789.263 684.21 784.829 684.144 780.433 684.235
C 777.662 684.292 774.831 684.715 772.072 684.321
C 771.482 683.764 771.563 683.065 771.479 682.283
C 774.681 681.161 778.915 681.771 781.05 678.612
C 782.352 676.685 781.402 673.87 780.749 671.898
C 779.488 668.09 778.164 664.319 776.749 660.564
C 776.117 658.887 775.626 656.971 774.655 655.451
C 770.483 654.719 765.734 655.214 761.502 655.219
C 754.314 655.226 747.085 655.021 739.908 655.193
C 737.509 660.962 733.842 666.885 732.484 672.984
C 732.033 675.006 731.457 678.605 733.304 680.1
C 734.976 681.454 739.225 680.962 741.275 680.913
C 741.546 681.971 741.434 683.181 741.778 684.222
C 736.057 684.01 730.218 683.967 724.491 684.103
C 720.761 684.192 716.939 684.701 713.228 684.194
C 713.319 683.493 713.264 683.863 713.396 683.083 Z
M 742.347 649.549
C 742.274 649.796 742.202 650.043 742.129 650.29
C 749.58 650.449 757.052 650.301 764.506 650.256
C 766.27 650.245 768.036 650.242 769.801 650.21
C 770.335 650.2 771.595 650.405 772.022 650.035
C 769.042 642.456 765.838 634.963 762.794 627.406
C 761.109 623.221 759.741 618.469 757.281 614.682
C 756.279 618.502 754.065 622.312 752.515 625.963
C 749.169 633.845 745.84 641.737 742.347 649.549 Z"
opacity="1" fill="rgb(22,113,178)" fill-rule="evenodd" />
<path d="
M 727.974 859.606
C 728.15 857.421 728.847 855.186 729.879 853.266
C 737.064 839.904 756.66 841.845 762.149 855.537
C 762.985 857.624 763.442 859.817 763.312 862.073
C 762.699 872.685 751.561 879.972 741.53 877.912
C 735.481 876.67 731.037 872.434 728.946 866.746
C 728.13 864.527 727.785 861.962 727.974 859.606 Z
M 732.914 858.089
C 732.268 862.669 733.219 867.587 736.622 870.924
C 741.543 875.749 750.244 875.031 754.933 870.273
C 757.116 868.056 758.123 865.25 758.514 862.222
C 760.206 849.123 741.711 842.443 734.7 853.599
C 733.84 854.966 733.141 856.477 732.914 858.089 Z"
opacity="1" fill="rgb(5,4,4)" fill-rule="evenodd" />
<path d="
M 776.953 844.313
C 778.165 844.041 780.305 843.971 781.491 844.372
C 781.356 849.302 781.64 854.314 781.623 859.26
C 781.611 862.704 781.352 866.648 783.04 869.781
C 786.233 875.709 796.559 875.283 799.701 869.559
C 800.989 867.211 800.624 863.814 800.639 861.222
C 800.673 855.477 800.818 849.741 800.898 844
C 801.665 843.927 804.237 843.498 804.778 844.018
C 805.275 848.401 804.808 853.079 804.81 857.493
C 804.813 862.483 805.429 867.766 802.813 872.237
C 797.73 880.923 783.483 879.722 779.069 871.066
C 777.182 867.365 777.188 863.033 777.109 858.983
C 777.013 854.096 776.783 849.198 776.953 844.313 Z"
opacity="1" fill="rgb(6,6,4)" fill-rule="evenodd" />
<path d="
M 787.73 729.792
C 790.602 729.41 793.613 729.808 796.507 729.825
C 802.89 729.86 809.294 730.002 815.674 729.767
C 815.879 730.449 815.755 731.556 815.621 732.25
C 813.858 733.048 810.878 733.148 809.752 734.933
C 810.272 738.229 812 740.925 813.733 743.721
C 816.059 747.476 818.494 751.162 820.946 754.836
C 822.682 757.436 824.215 760.952 826.369 763.18
C 830.332 756.766 834.549 750.459 838.225 743.874
C 839.586 741.437 842.491 738.066 842.627 735.203
C 840.845 733.617 838.287 732.804 836.121 731.871
C 835.072 731.419 834.039 731.064 834.852 729.765
C 838.163 729.271 841.829 729.868 845.173 729.932
C 849.324 730.012 853.646 729.57 857.759 729.941
C 858.078 730.511 858.747 731.6 858.869 732.233
C 857.929 732.11 857.037 731.751 856.073 731.902
C 852.032 732.539 849.616 736.03 847.412 739.095
C 842.982 745.256 839.048 751.762 834.874 758.1
C 833.658 759.945 832.527 761.845 831.309 763.689
C 830.528 764.871 829.332 766.151 828.847 767.489
C 828.491 768.47 828.746 769.799 828.755 770.826
C 828.775 773.098 828.764 775.372 828.76 777.644
C 828.753 782.679 826.719 791.884 832.231 794.645
C 834.338 795.052 836.771 795.182 838.919 795.328
C 839.082 795.608 839.396 796.42 839.132 796.734
C 838.757 797.178 836.528 796.828 835.994 796.812
C 833.166 796.731 830.328 796.736 827.498 796.739
C 822.705 796.745 817.919 796.724 813.132 796.986
C 810.621 797.124 808.469 797.963 807.656 795.11
C 810.346 794.792 813.228 794.772 815.87 794.222
C 820.524 791.587 818.879 784.196 818.982 779.678
C 819.052 776.613 819.782 772.714 819.042 769.73
C 818.073 765.822 814.584 761.959 812.352 758.685
C 807.575 751.677 802.986 744.499 798.059 737.597
C 796.254 735.069 793.683 733.772 790.94 732.495
C 789.257 731.712 787.845 731.927 787.73 729.792 Z"
opacity="1" fill="rgb(109,159,54)" fill-rule="evenodd" />
<path d="
M 826.432 656.296
C 827.604 656.053 828.975 656.245 830.175 656.221
C 830.571 659.322 830.847 662.356 831.901 665.334
C 834.534 672.774 840.905 677.915 848.359 680.071
C 856.292 682.366 870.567 680.302 872.248 670.309
C 873.281 664.173 870.585 658.681 866.121 654.708
C 855.707 645.44 840.456 641.592 831.843 630.223
C 821.874 617.062 830.883 597.487 847.015 595.405
C 851.921 594.772 856.953 594.651 861.703 596.249
C 865.355 597.479 869.798 600.581 873.799 599.565
C 875.328 598.378 876.148 596.599 877.575 595.345
C 878.356 595.229 879.306 595.173 880.081 595.344
C 880.226 596.074 879.858 596.77 879.871 597.505
C 879.913 599.994 879.836 602.491 879.839 604.983
C 879.848 611.8 880.172 618.62 880.412 625.43
C 879.926 626.096 877.847 625.937 877.213 625.535
C 876.539 622.584 876.462 619.539 875.729 616.574
C 874.694 612.384 871.824 607.933 868.429 605.296
C 860.901 599.45 846.57 596.533 840.584 606.251
C 839.773 607.568 839.186 608.909 838.934 610.445
C 837.691 618.008 843.552 623.175 849.258 626.924
C 852.047 628.756 854.906 630.489 857.735 632.259
C 868.792 639.173 885.596 646.371 885.814 661.696
C 885.84 663.503 885.782 665.213 885.384 666.975
C 884.871 669.249 883.814 671.512 882.546 673.464
C 880.782 676.181 878.476 678.585 875.847 680.476
C 871.941 683.286 867.522 684.987 862.837 686.004
C 856.228 687.439 849.312 686.073 843.056 683.928
C 840.345 682.998 835.474 679.845 832.623 681.117
C 831.077 682.775 830.955 685.001 829.691 686.738
C 828.959 686.827 828.25 686.774 827.521 686.683
C 827.094 683.625 827.587 680.294 827.574 677.204
C 827.543 670.279 827.443 663.156 826.432 656.296 Z"
opacity="1" fill="rgb(22,113,177)" fill-rule="evenodd" />
<path d="
M 903.973 682.608
C 904.035 681.927 904.03 682.313 903.935 681.45
C 908.696 681.066 913.298 681.787 915.851 676.905
C 916.967 674.772 916.785 672.371 916.792 670.038
C 916.804 666.359 916.81 662.68 916.816 659.001
C 916.836 646.334 916.774 633.668 916.815 621.001
C 916.827 617.333 916.827 613.665 916.846 609.996
C 916.855 608.274 917.114 606.025 916.423 604.411
C 914.329 599.523 908.91 599.285 904.455 599.389
C 904.045 598.599 904.322 597.618 904.418 596.75
C 908.39 596.418 912.65 597.313 916.666 597.3
C 929.612 597.258 942.56 597.428 955.507 597.424
C 959.673 597.423 963.84 597.398 968.006 597.434
C 969.092 597.443 971.653 597.123 972.404 597.901
C 972.133 603.691 972.064 610.396 973.041 616.115
C 972.511 616.554 971.066 616.133 970.395 616.086
C 969.316 612.76 969.511 608.142 967.163 605.328
C 964.609 602.266 960.919 602.216 957.311 602.131
C 952.318 602.014 947.34 601.866 942.34 601.908
C 939.403 601.932 936.465 601.858 933.528 601.916
C 932.644 601.934 930.566 601.827 929.991 602.421
C 929.634 613.474 929.564 624.704 930.005 635.752
C 931.797 636.392 934.438 636.066 936.347 636.086
C 941.333 636.14 946.323 635.909 951.31 635.88
C 953.627 635.866 956.582 636.099 958.516 634.587
C 961.898 631.941 961.64 627.874 962.781 624.155
C 963.754 624.287 964.728 624.294 965.701 624.441
C 965.85 625.422 965.47 626.8 965.382 627.812
C 965.205 629.863 965.22 631.948 965.198 634.005
C 965.131 640.582 965.528 647.189 965.326 653.752
C 964.593 654.162 963.619 654.187 962.793 654.188
C 962.858 649.764 962.26 644.759 958.336 641.947
C 956.544 640.663 953.125 641.211 951.016 641.057
C 946.985 640.761 942.935 640.815 938.891 640.799
C 935.987 640.787 932.959 640.567 930.093 641.09
C 929.65 644.17 929.91 647.393 929.899 650.502
C 929.879 656.002 929.848 661.502 929.85 667.002
C 929.85 670.172 929.003 674.901 930.369 677.81
C 931.488 678.779 933.097 678.685 934.5 678.683
C 937.497 678.679 940.494 678.626 943.492 678.62
C 953.024 678.6 963.891 679.756 970.822 671.879
C 973.425 668.922 974.54 665.171 976.412 661.797
C 977.226 661.287 978.674 661.246 979.41 661.889
C 979.342 664.141 978.125 665.74 977.373 667.793
C 976.171 671.08 975.078 674.413 974.219 677.805
C 973.857 679.235 973.522 682.849 972.518 683.891
C 956.265 683.992 939.982 683.965 923.726 683.889
C 917.25 683.859 910.598 684.799 904.153 684.195
C 903.931 683.669 903.976 683.172 903.973 682.608 Z"
opacity="1" fill="rgb(23,117,179)" fill-rule="evenodd" />

</svg>